<?xml version="1.0" encoding="UTF-8"?>
<!DOCTYPE svg PUBLIC "-//W3C//DTD SVG 1.1//EN" "http://www.w3.org/Graphics/SVG/1.1/DTD/svg11.dtd">
<!-- Creator: CorelDRAW 2021 (64 Bit) -->
<svg xmlns="http://www.w3.org/2000/svg" xml:space="preserve" width="124mm" height="60mm" version="1.1" style="shape-rendering:geometricPrecision; text-rendering:geometricPrecision; image-rendering:optimizeQuality; fill-rule:evenodd; clip-rule:evenodd"
viewBox="0 0 12400 6000"
 xmlns:xlink="http://www.w3.org/1999/xlink"
 xmlns:xodm="http://www.corel.com/coreldraw/odm/2003">
 <defs>
  <style type="text/css">
   <![CDATA[
    .fil0 {fill:white}
   ]]>
  </style>
 </defs>
 <g id="Camada_x0020_1">
  <metadata id="CorelCorpID_0Corel-Layer"/>
  <g id="_2009251815824">
   <path class="fil0" d="M5732.92 1199.62l5.05 276.66c0.78,26.26 5.25,28.87 5.6,57l4.99 188.02c-0.19,46.58 5.37,72.43 5.23,119.96l5.19 187.83c1.28,23.63 5.38,28.52 5.42,57.18l5.21 125.21c5.08,169.58 10.25,326.65 15.31,495.92 1.29,43.21 5.72,50.01 5.32,119.88 -0.26,44.01 5.46,75.97 5.27,125.15 -0.19,47.92 5.58,75.64 5.09,125.31 -0.22,23.26 -1.06,38.58 8.3,54.3 8.05,13.52 25.22,23.82 44,23.82l996.38 0c44.54,0 52.59,-36.44 52.38,-72.82 -0.28,-49.44 5.33,-81.19 5.07,-125.34 -0.12,-20.46 -0.84,-42.57 -0.24,-62.84 1.3,-43.37 5.55,-50.26 5.27,-119.94l9.13 -183.88c5.72,-41.73 -2.87,-85.85 2.85,-127.57 5.14,-37.46 1.43,-78.16 3.77,-121.43l5.03 -125.38c0.43,-35.21 5.74,-53.16 5.36,-119.85 -0.55,-94.43 16.32,-276.06 15.78,-370.24l14.82 -371.21c10.64,-94.76 -9.4,-383.67 -21.71,-472.35 -8.75,-63.02 -20.47,-410.14 -27.2,-442.29 -6.09,-29.1 -28.45,-60.11 -59.88,-60.11l-1017.24 0c-55.88,0 -62.2,65.52 -62.46,109.69l-16.06 276.06c-12.3,149.86 -31.03,285.08 -31.03,433.26z"/>
   <path class="fil0" d="M4345.3 1303.96c0,80.99 10.33,170.59 19.33,241.49 28.71,225.97 47.4,480.46 76.1,706.4l51.09 470.57c1.83,22.11 39.06,389.19 49.74,409.32 7.43,14 25.02,24.12 43.71,24.12l740.76 0c41.38,0 65.24,-24.04 59.84,-64.54l-23.5 -373.49c-0.49,-68.73 -10.34,-144.74 -10.15,-188.08 0.13,-30.39 -4.75,-35.47 -5.49,-62.32l-29.71 -497.17c-2.85,-20.83 -0.31,-40.46 -1.4,-61.2l-10.48 -125.15c-1.24,-23.49 1.38,-42.15 -2.18,-65.64 -3.48,-22.99 -2.24,-35.62 -2.86,-59.74l-26.24 -443.26c0,-171.59 35.02,-434.74 94.65,-593.94 54.2,-144.67 109.96,-221.81 -15.85,-209.02 -34.94,3.56 -77.09,10.13 -111.05,14.3 -77.05,9.46 -153.01,20.76 -228.44,27.18l-223.5 26.89c-160.56,19.7 -230.02,66.62 -300.05,205.97 -29.55,58.8 -51.1,115.96 -73.25,182.36 -40.53,121.49 -71.07,275.99 -71.07,434.95z"/>
   <path class="fil0" d="M7271.83 448.43c0,18.05 49.33,143.42 59.59,169.94 39.67,102.65 76.4,263.58 81.29,377.76 2.93,68.23 15.62,140.64 15.62,213.93 0,49.16 -4.62,77.48 -5.03,125.39l-15.89 244.94c0.29,30.11 -3.05,40.33 -4.89,62.92 -5.97,73.45 -6.28,171.53 -15.17,250.89 -2.45,21.92 0.93,44.36 -1.52,66.29l-30.37 501.72c-0.73,26.4 -5.36,28.78 -5.55,57.04 -0.21,29.19 -1.86,41.75 -4.29,63.54 -6.64,59.58 -6.81,191.32 -14.98,251.06l-14.28 252.21c-7.08,44.83 16.22,69.8 59.8,69.8l740.76 0c52.35,0 50.18,-49.48 53.12,-77.3l39.25 -352c28.71,-226.01 47.67,-479.32 76.04,-706.45 9.42,-75.38 17.02,-154.24 25.48,-235.35l46.08 -475.59c0,-74.36 -9.4,-166.27 -20.1,-230.3 -26.37,-157.78 -102.97,-433.92 -230.18,-531.46 -83.62,-64.11 -182.75,-65.44 -297.03,-78.55 -59.3,-6.81 -487.75,-64.36 -507.54,-58.09 -14.23,4.51 -30.21,21.65 -30.21,37.66z"/>
   <path class="fil0" d="M8143 4799.1l-87.38 -89.98c-7.81,-7.74 -13.58,-12.69 -20.63,-21.11 -9.6,-11.49 -9.86,-14.39 -20.99,-25.96l-399.11 -419.89c-30.48,-32.96 -61.7,-56.73 -89.65,-92.94 -59.25,-76.8 -161.23,-97.01 -219.83,-31.21 -19.01,21.36 -33.58,53.49 -33.58,91.61l0 1387.62c0,12.21 8.66,20.86 20.87,20.86l370.37 0c28.47,0 21.05,-38.58 20.89,-67.79l-0.02 -626.01c19.58,5.22 22.02,19.46 56.08,53.47l109.6 109.5c20.05,19.82 31.33,36.77 52.11,57.43 37.9,37.68 71.62,71.93 109.57,109.54 35.9,35.58 62.39,87.39 131.7,87.39 67.2,0 99.09,-49.54 134.33,-84.77l215.96 -222.24c22.31,-27.96 81.38,-91.97 108.78,-110.32l-0.01 620.78c-0.09,28.69 -8.65,73.02 20.87,73.02 74.13,0 338.42,7.1 391.25,-5.21l0 -1366.75c0.01,-36.55 4.14,-63.28 -7.9,-91.22 -32.65,-75.79 -123.23,-101.35 -187.47,-57.21 -19.85,13.64 -84.46,78.62 -99.78,98.46 -29.43,38.12 -62.73,63.42 -94.86,98.15 -10.4,11.25 -11.04,14.99 -20.84,26.11l-266.02 276.51c-43.94,43.55 -160.29,179.38 -194.31,202.16z"/>
   <path class="fil0" d="M9259.36 4193.97l0 1403.27c0,12.21 8.66,20.86 20.87,20.86l375.59 0c16.04,0 20.87,-15.28 20.87,-31.29l0 -1116.36 328.65 0c170.75,0 200.48,265.33 45.33,342.67 -59.32,29.57 -157.3,22.49 -243.57,22.49 -2.72,11.7 -5.21,12 -5.21,26.09l449.65 713.65c7.95,12.76 19.45,42.75 35.5,42.75l406.89 0c57.04,0 -34.33,-117.02 -61.54,-157.55 -23,-34.27 -256.02,-391.09 -261.88,-416.27 52.87,-35.41 100.19,-93.11 130.48,-151.21 61.5,-118.01 62.53,-181.15 62.53,-307.86 0,-69.92 -31.82,-169.4 -57.59,-213.68 -13.84,-23.78 -35.54,-60.93 -53.5,-82.13 -37.52,-44.29 -39.73,-49.57 -82.66,-84.27l-59.77 -44.56c-91.23,-61.12 -197.75,-86.58 -320.31,-86.58l-599.91 0c-39.71,0 -68.89,14.37 -90.24,34.96 -19.2,18.54 -40.18,49.86 -40.18,85.02z"/>
   <path class="fil0" d="M10527 4094.85c0,31.45 164.4,344.45 191.28,398.2 65.8,131.62 129.69,259.38 194.75,389.51 47,93.99 313.04,640.68 339.91,682.55 29.29,45.64 70.28,52.99 119.16,52.99 80.89,0 113.38,-96.35 142.58,-154.75 34.65,-69.3 66.21,-132.41 100.86,-201.71l500.79 -1001.6c17.86,-35.71 32.56,-65.14 50.43,-100.85 13.93,-27.83 54.6,-85.2 -6.95,-85.2l-391.25 0c-37.28,0 -39.65,32.41 -64.34,81.72 -17.27,34.49 -31.44,62.88 -48.69,97.38 -34.07,68.15 -65.05,130.09 -99.12,198.23 -33.95,67.91 -63.47,132.16 -97.37,199.97 -16.33,32.66 -92.34,178.33 -97.38,199.97 -18.23,-13.36 -40.54,-70.63 -52.16,-93.9 -16.96,-33.9 -32.75,-65.47 -50.43,-100.85l-246.92 -499.06c-22.82,-45.63 -31.45,-83.46 -67.82,-83.46l-386.03 0c-16.02,0 -31.3,4.83 -31.3,20.86z"/>
   <path class="fil0" d="M3421.96 1491.75c0,160.64 100.5,693.74 127.4,868.98l119.16 731.15c6.39,39.08 11.59,63.98 61.22,63.98l328.65 0c18.23,0 29.61,-6.79 38.93,-18.59 21.72,-27.49 1.92,-103.41 -5.43,-155.76 -10.81,-76.97 -17.98,-147.03 -28.58,-221.82l-142.13 -1094.22c-23.95,-181.67 -43.29,-297.58 2.58,-480.49 15.32,-61.08 25.21,-108.29 48.17,-165.71 29.24,-73.12 66.99,-143.66 113.27,-204.95 24.92,-32.98 41,-44.04 41,-73.76 0,-25.24 -16.5,-41.74 -41.73,-41.74 -30.61,0 -239.23,75.27 -269.59,90.35 -159.62,79.28 -267.67,234.04 -333.38,396.96 -31.04,76.93 -59.54,200.7 -59.54,305.62z"/>
   <path class="fil0" d="M8575.98 730.12c0,41.77 4.87,36.3 38.76,81.23 46.27,61.33 87.77,134.75 115.54,207.89 93.87,247.25 85.71,393.54 51.41,641.7l-85.72 660.26c-27.29,248.45 -71.56,516.24 -99.81,766.64 -3.84,34.03 4.54,68.02 47.64,68.02l328.65 0c45.09,0 53.77,-19.48 60.48,-59.5 6.09,-36.32 10.92,-71.53 16.23,-103.75l103.67 -631.88c23.11,-150.6 127.4,-724.55 127.4,-858.54 0,-231.33 -115.74,-516.6 -299.47,-655.18 -73.49,-55.43 -128.75,-74.41 -218.95,-104.48 -30.26,-10.1 -185.83,-80.39 -185.83,-12.41z"/>
   <path class="fil0" d="M4256.62 4157.45l0 1439.79c0,36.21 99.36,20.45 119.98,15.65 12.58,-53.97 5.22,-553.13 5.22,-652.08 0,-220.83 0,-441.67 0,-662.51 17.49,11.71 331.5,445.35 370.41,500.76 115.23,164.09 253.87,340.11 370.38,506.02l123.65 168.49c65.62,87.12 83.5,144.53 158.02,144.53 27.98,0 73.03,-28.47 73.03,-78.24l0 -1445.01c0,-36.21 -99.37,-20.45 -119.98,-15.65 -12.58,53.96 -5.22,558.47 -5.22,657.3 0,222.57 0,445.15 0,667.73l-247.42 -336.85c-22.37,-29.59 -39.74,-54.76 -61.88,-84.18 -184.16,-244.7 -370.06,-511.18 -555.23,-759.37 -42.11,-56.44 -90.73,-149.84 -147.49,-149.84 -47.15,0 -83.47,36.31 -83.47,83.46z"/>
   <path class="fil0" d="M2175.18 4877.35l-328.64 0 0 -683.38 406.89 0c104.06,0 207.34,32.58 259.64,84.66 34.34,34.2 51.97,49.93 72.13,100.02 59.18,147.06 23.85,332 -91.67,420.57 -74.69,57.27 -186.2,78.13 -318.35,78.13zm-448.62 -798.15c-2.73,11.7 -5.22,12 -5.22,26.09l0 1481.52c0,14.09 2.49,14.38 5.22,26.08 20.61,4.8 119.98,20.56 119.98,-15.65l0 -599.91 339.08 0c16.85,0 102.87,138.6 112.66,153.38l215.97 316.13c17.34,26.19 34.92,49.73 53.22,77.19 60.04,90.08 31.42,74.07 165.9,74.07 60.64,0 -29.87,-103.46 -54.3,-138.71l-336.95 -492.49c90.04,-2.01 213.45,-59.26 283,-129.11 38.6,-38.76 61.52,-69.32 83.69,-124.99 69.35,-174.14 39.18,-422.37 -99.37,-545.33 -76.95,-68.29 -201.61,-113.48 -345.57,-113.48 -69.37,0 -506.56,-6.72 -537.31,5.21z"/>
   <path class="fil0" d="M9421.08 985.74c0,16.83 63.61,82.21 86.63,116.82 28.9,43.49 53.37,85.38 75.02,133.64 89.22,198.79 83.09,352.38 48.49,559.6 -11.59,69.44 -22.08,132.54 -33.51,201.23l-179.29 1094.07c-6.76,41.63 16.02,64.76 49.61,64.76 70.06,0 165.55,11.96 192.25,-16.42 12.93,-13.73 12.5,-20.75 15.88,-41.49l104.88 -661.97c14.22,-84.53 114.75,-688.86 114.75,-766.86 0,-229.35 -64.4,-378.23 -177.26,-526.98l-71.58 -74.5c-44.29,-37.43 -129.07,-105.04 -187.32,-115.45 -19.85,-3.55 -38.55,13.45 -38.55,33.55z"/>
   <path class="fil0" d="M2806.4 1632.6c0,131.97 32.13,284.89 53.7,415.8l120.74 760.87c5.57,34.76 40.28,304.95 58.59,327.43 8.7,10.69 20.77,19.16 38.23,19.16l156.5 0c79.33,0 42.35,-101.04 33.5,-158.7 -31.84,-207.45 -221.3,-1288.99 -221.3,-1406.29 0,-391.51 234.75,-581.64 234.75,-599.91 0,-22.47 -14.1,-38.98 -31.1,-39.58 -11.04,-0.4 -41.65,13.27 -52.46,18.62 -33.32,16.48 -65.25,35.1 -94.63,56.66 -169.41,124.32 -296.52,369.24 -296.52,605.94z"/>
   <path class="fil0" d="M839.73 4225.27c2.14,25.76 147.56,396.17 161.11,433.58l162.32 432.38 -652.08 0c31.2,-65.01 203.12,-544.62 243.63,-648.42l83.1 -214.25c0.38,-0.7 1.2,-2.25 1.92,-3.29zm-646.86 1366.75c0,36.48 30.07,26.08 104.33,26.08 24.27,0 37.97,-58.47 50.7,-90.14l78.2 -208.72c8.74,-22.34 36.39,-88.26 38.03,-108.03l745.98 0c3.34,14.35 13.1,37.82 19.31,53.72l120.64 317.56c17.23,44.94 16.28,35.61 115.67,35.61 46.32,0 0.34,-85.39 -12.69,-117.73 -13.73,-34.09 -25.29,-63.61 -37.53,-98.1 -11.94,-33.63 -25.38,-67.28 -37.71,-97.91l-415.84 -1076.12c-28.15,-69.68 -41.83,-154.25 -127.44,-154.25 -37.83,0 -67.11,22.89 -81.45,48.97l-263.6 685.82c-25.2,62.27 -48.54,127.37 -73.84,192.21 -13.78,35.29 -23.5,62.73 -37.18,98.45l-112.49 294.4c-10.14,25.51 -73.09,181.39 -73.09,198.18z"/>
   <path class="fil0" d="M6353.7 4225.27c1.56,18.8 271.88,730.19 303.32,807.83 7.11,17.55 15.17,36.92 20.11,58.13l-652.08 0c15.15,-31.58 26.38,-70.53 40.18,-105.89 14.84,-38.02 26.72,-71.06 41.77,-109.51l162.45 -432.25c14.23,-38.23 25.95,-71.83 41,-110.29l39.42 -101.42c0.47,-0.88 1.53,-2.6 1.91,-3.31 0.39,-0.7 1.2,-2.25 1.92,-3.29zm-646.86 1366.75c0,36.48 30.08,26.08 104.33,26.08 20.24,0 25.67,-22.28 30.84,-36.97l98.8 -261.15c8.87,-24 35.56,-87.84 37.29,-108.77l745.98 0 140.1 371.13c15.6,45.58 20.52,35.76 115.51,35.76 46.79,0 -0.17,-83.63 -12.38,-118.02 -76.22,-214.74 -187.26,-469.68 -264.7,-684.72 -67.14,-186.41 -154.79,-397.96 -226.72,-587.08 -28.41,-74.69 -41.69,-154.29 -127.4,-154.29 -77.35,0 -95.18,79.82 -119.38,146.67l-298.73 781.11c-27.98,75.74 -223.54,570.4 -223.54,590.25z"/>
   <path class="fil0" d="M3056.79 4094.85l0 1502.39c0,12.21 8.66,20.86 20.87,20.86l923.34 0c30.48,0 20.87,-47.39 20.87,-99.11 0,-12.21 -8.65,-20.87 -20.87,-20.87l-819.01 0 0 -589.47 636.43 0c37.35,0 37.35,-119.99 0,-119.99l-636.43 0 0 -594.69 772.06 0c30.48,0 20.87,-47.4 20.87,-99.12 0,-12.21 -8.65,-20.86 -20.87,-20.86l-876.39 0c-12.21,0 -20.87,8.65 -20.87,20.86z"/>
   <path class="fil0" d="M2608.17 3155.86c36.21,0 114.23,5.8 136.69,-9.37 34.02,-22.97 15.88,-61.77 8.5,-114.96 -25.92,-186.79 -69.98,-423.37 -100.54,-614.14l-84.91 -525.44c-9.08,-54.41 -22.34,-122.37 -22.34,-181.1 0,-163.75 55.97,-317.92 140.86,-438.18 13.61,-19.29 27.86,-34.23 41.7,-52.19 11.26,-14.6 41.75,-38.63 41.75,-57.37 0,-84.32 -195.55,56.61 -247.41,122.97 -8.12,10.4 -11.85,13.05 -19.41,22.32 -11.24,13.76 -26.67,34.09 -35.48,47.98 -64.79,102.17 -98.66,185.23 -116.67,305.88 -2.82,18.93 -4.69,56.83 -7.43,76.17 -6.76,47.63 26.64,245.46 35.88,300.34l137.83 868.98c7.98,49.8 15.23,96 23.16,143.78 8.77,52.83 4.29,104.33 67.82,104.33z"/>
   <path class="fil0" d="M9932.3 1163.11c0,17.43 57.36,73.34 81.28,106.52 62.23,86.3 93.71,160.78 120.12,265.91 34.9,138.9 23.38,219.98 -0.18,360.88l-196.03 1207.82c-2.4,67.1 80.76,51.62 156.53,51.62 62.58,0 58.56,-49.08 67.09,-99.84 8.33,-49.51 15.52,-94.45 22.47,-144.47 24.88,-179.3 185.63,-1091.09 175.24,-1167.8 -6.98,-51.54 -7.67,-98.74 -19.55,-147.74 -28.09,-115.91 -94.43,-244.74 -176.02,-329.98 -33.91,-35.44 -230.95,-191.04 -230.95,-102.92z"/>
   <path class="fil0" d="M10631.33 1783.88c0,117.36 0.18,109.02 -20.09,230.3l-122.28 780.2c-10.92,65.71 -45.42,268.67 -45.42,324.96 0,47.77 101,36.52 130.41,36.52 26.55,0 42.31,-17.33 48.42,-40.27 15.54,-58.38 131.33,-782.64 148.33,-884.55 45.82,-274.73 107.64,-487.96 -78.19,-737.86 -52.03,-69.98 -120.26,-135.4 -198.5,-177.1 -28.85,-15.38 -51.58,-32.99 -92.21,-32.99 -6.05,28.55 7.15,29.89 27.48,50.77 112.22,115.21 202.05,285.55 202.05,450.02z"/>
   <path class="fil0" d="M1883.06 1851.7c0,150.78 23.81,229.44 47.7,374.85 17.48,106.41 35.31,212.31 53.64,321.95 18.28,109.35 36.18,217.05 53.67,321.93l40.8 240.9c12.75,57.37 58.74,44.53 132.83,44.53 79.67,0 39.21,-125.15 26.85,-199 -8.99,-53.81 -15.62,-102.24 -24.56,-158.02 -16.79,-104.81 -35.1,-208.15 -48.95,-310.99 -7,-51.93 -15.94,-99.77 -24.17,-153.2 -12.85,-83.5 -70.02,-420.56 -70.02,-477.73 0,-137.44 10.25,-233.34 76.02,-351.75 12.44,-22.37 18.65,-35.88 32.42,-56.26 30.63,-45.36 121.09,-140.8 121.09,-150.17l0 -15.65c-51.63,0 -134.69,55.92 -170.57,85.03 -49.22,39.92 -82.17,74 -120.13,125.06 -59.34,79.79 -126.62,222.13 -126.62,358.52z"/>
   <path class="fil0" d="M1418.78 1976.9c0,104.82 153.15,932.45 184.78,1103.72 4.4,23.85 13,55.11 13.45,75.24 168.14,0 165.84,5.04 146.03,-114.73 -4.32,-26.11 -7.9,-47.75 -12.63,-76.05l-150.48 -887.64c-30.45,-174.71 -31.14,-287.27 53.53,-450.12 22.17,-42.65 77.68,-117.22 113.45,-152.6 114.25,-112.98 -107.01,-28.59 -236.43,149.61 -67.19,92.52 -111.7,231.06 -111.7,352.57z"/>
   <path class="fil0" d="M11121.7 1914.3c0,62.72 -9.16,102.08 -18.64,158.73l-150.53 887.58c-4.54,27.16 -8.21,51.9 -12.96,75.72 -25.98,130.16 -9.69,119.53 145.61,119.53l179.57 -1025.47c23.85,-131 28.39,-221.87 -14.47,-349.89 -45.04,-134.53 -134,-248.77 -253.47,-320.35 -61.96,-37.13 -138.94,-61.04 -64.18,12 16.97,16.58 25.29,29.46 41.69,47 13.79,14.75 26.46,33.6 38.66,50.02 62.14,83.68 108.72,222.91 108.72,345.13z"/>
  </g>
 </g>
</svg>
