<?xml version="1.0" encoding="UTF-8"?>
<!DOCTYPE svg PUBLIC "-//W3C//DTD SVG 1.1//EN" "http://www.w3.org/Graphics/SVG/1.1/DTD/svg11.dtd">
<!-- Creator: CorelDRAW 2021 (64 Bit) -->
<svg xmlns="http://www.w3.org/2000/svg" xml:space="preserve" width="15mm" height="15mm" version="1.1" style="shape-rendering:geometricPrecision; text-rendering:geometricPrecision; image-rendering:optimizeQuality; fill-rule:evenodd; clip-rule:evenodd"
viewBox="0 0 150000 150000"
 xmlns:xlink="http://www.w3.org/1999/xlink"
 xmlns:xodm="http://www.corel.com/coreldraw/odm/2003">
 <defs>
  <style type="text/css">
   <![CDATA[
    .fil1 {fill:#FFCC00;fill-rule:nonzero}
    .fil0 {fill:white;fill-rule:nonzero}
   ]]>
  </style>
 </defs>
 <g id="Camada_x0020_1">
  <metadata id="CorelCorpID_0Corel-Layer"/>
  <path class="fil0" d="M13519 92158l0 -33609c0,-747 119,-1428 358,-2040 239,-613 579,-1140 1020,-1581 441,-441 968,-781 1581,-1020 612,-239 1292,-358 2040,-358l50802 0 0 8332 -46690 0 0 8830 41021 0 0 8332 -41021 0 0 9781 46690 0 0 8332 -50802 0c-748,0 -1428,-119 -2040,-358 -613,-239 -1140,-579 -1581,-1020 -441,-442 -781,-968 -1020,-1581 -239,-613 -358,-1293 -358,-2040z"/>
  <polygon id="_1" class="fil1" points="97306,74263 75191,53550 89519,53550 104393,67566 119266,53550 133594,53550 111479,74263 135774,97157 121758,97157 104393,80898 87028,97157 73011,97157 "/>
 </g>
</svg>
