<?xml version="1.0" encoding="UTF-8"?>
<!DOCTYPE svg PUBLIC "-//W3C//DTD SVG 1.1//EN" "http://www.w3.org/Graphics/SVG/1.1/DTD/svg11.dtd">
<!-- Creator: CorelDRAW 2021 (64 Bit) -->
<svg xmlns="http://www.w3.org/2000/svg" xml:space="preserve" width="37mm" height="22mm" version="1.1" style="shape-rendering:geometricPrecision; text-rendering:geometricPrecision; image-rendering:optimizeQuality; fill-rule:evenodd; clip-rule:evenodd"
viewBox="0 0 370000 220000"
 xmlns:xlink="http://www.w3.org/1999/xlink"
 xmlns:xodm="http://www.corel.com/coreldraw/odm/2003">
 <defs>
  <style type="text/css">
   <![CDATA[
    .fil1 {fill:#333333}
    .fil0 {fill:#333333;fill-rule:nonzero}
   ]]>
  </style>
 </defs>
 <g id="Camada_x0020_1">
  <metadata id="CorelCorpID_0Corel-Layer"/>
  <g id="_2825597723168">
   <g>
    <path class="fil0" d="M224061 215665c17654,0 31448,-5319 31448,-21978 0,-16659 -13794,-21978 -31448,-21978 -17653,0 -31448,5319 -31448,21978 0,16659 13795,21978 31448,21978zm0 -33961c7541,0 12451,3916 12451,11983 0,8066 -4910,11983 -12451,11983 -7540,0 -12508,-3917 -12508,-11983 0,-8067 4968,-11983 12508,-11983z"/>
    <polygon class="fil0" points="318406,173228 298942,173228 286344,196441 273747,173228 254282,173228 276494,214146 296193,214146 "/>
    <polygon class="fil0" points="143543,190094 164848,214146 187295,214146 187295,173228 171247,173228 171247,197280 149884,173228 127438,173228 127438,214146 143543,214146 "/>
    <polygon class="fil0" points="121575,203119 87631,203119 87631,197661 121575,197661 121575,189186 87631,189186 87631,183261 121575,183261 121575,173228 68692,173228 68692,214146 121575,214146 "/>
    <polygon class="fil0" points="305819,214146 325283,214146 337880,190933 350478,214146 369942,214146 347730,173228 328032,173228 "/>
    <path class="fil0" d="M18171 192577c513,-6766 5776,-10055 12936,-10055 5084,0 11106,817 11515,4901l19640 0c0,-10946 -16134,-14213 -31155,-14213 -17168,0 -31217,4721 -31889,19369l18953 -2z"/>
    <path class="fil0" d="M31107 214164c9527,0 16892,-2886 21218,-8005l-24 7986 9961 0 0 -21567 -31565 0 -39 6937 12022 0c-2104,3539 -6312,5337 -11573,5337 -5232,0 -9450,-1757 -11543,-5344l-19587 0c3219,10969 15956,14656 31130,14656z"/>
    <polygon class="fil1" points="344370,214145 337880,202785 331391,214145 "/>
   </g>
   <g>
    <path class="fil1" d="M208831 119727c2779,0 5031,-2252 5031,-5031 0,-2779 -2252,-5031 -5031,-5031 -2779,0 -5032,2252 -5032,5031 0,2779 2253,5031 5032,5031z"/>
    <path class="fil1" d="M160748 102396c6743,0 12206,-5464 12206,-12206 0,-6741 -5463,-12206 -12206,-12206 -6742,0 -12206,5465 -12206,12206 0,6742 5464,12206 12206,12206z"/>
    <path class="fil1" d="M136511 77702c6743,0 12208,-5465 12208,-12206 0,-6743 -5465,-12207 -12208,-12207 -6741,0 -12206,5464 -12206,12207 0,6741 5465,12206 12206,12206z"/>
    <path class="fil1" d="M232649 28881c6741,0 12206,-5465 12206,-12206 0,-6742 -5465,-12206 -12206,-12206 -6743,0 -12208,5464 -12208,12206 0,6741 5465,12206 12208,12206z"/>
    <path class="fil1" d="M232649 95221c2777,0 5031,-2251 5031,-5031 0,-2778 -2254,-5032 -5031,-5032 -2780,0 -5033,2254 -5033,5032 0,2780 2253,5031 5033,5031z"/>
    <path class="fil1" d="M184477 95221c2779,0 5032,-2251 5032,-5031 0,-2778 -2253,-5032 -5032,-5032 -2779,0 -5031,2254 -5031,5032 0,2780 2252,5031 5031,5031z"/>
    <path class="fil1" d="M160748 119727c2779,0 5032,-2252 5032,-5031 0,-2779 -2253,-5031 -5032,-5031 -2779,0 -5031,2252 -5031,5031 0,2779 2252,5031 5031,5031z"/>
    <path class="fil1" d="M136511 95221c2781,0 5032,-2251 5032,-5031 0,-2778 -2251,-5032 -5032,-5032 -2778,0 -5031,2254 -5031,5032 0,2780 2253,5031 5031,5031z"/>
    <path class="fil1" d="M136511 46291c2781,0 5032,-2251 5032,-5031 0,-2778 -2251,-5031 -5032,-5031 -2778,0 -5031,2253 -5031,5031 0,2780 2253,5031 5031,5031z"/>
    <path class="fil1" d="M160748 70527c2779,0 5032,-2253 5032,-5031 0,-2779 -2253,-5032 -5032,-5032 -2779,0 -5031,2253 -5031,5032 0,2778 2252,5031 5031,5031z"/>
    <path class="fil1" d="M208831 70527c2779,0 5031,-2253 5031,-5031 0,-2779 -2252,-5032 -5031,-5032 -2779,0 -5032,2253 -5032,5032 0,2778 2253,5031 5032,5031z"/>
    <path class="fil1" d="M184477 46291c2779,0 5032,-2251 5032,-5031 0,-2778 -2253,-5031 -5032,-5031 -2779,0 -5031,2253 -5031,5031 0,2780 2252,5031 5031,5031z"/>
    <path class="fil1" d="M232649 46291c2777,0 5031,-2251 5031,-5031 0,-2778 -2254,-5031 -5031,-5031 -2780,0 -5033,2253 -5033,5031 0,2780 2253,5031 5033,5031z"/>
    <path class="fil1" d="M160748 21706c2779,0 5032,-2253 5032,-5031 0,-2779 -2253,-5033 -5032,-5033 -2779,0 -5031,2254 -5031,5033 0,2778 2252,5031 5031,5031z"/>
    <path class="fil1" d="M208831 21706c2779,0 5031,-2253 5031,-5031 0,-2779 -2252,-5033 -5031,-5033 -2779,0 -5032,2254 -5032,5033 0,2778 2253,5031 5032,5031z"/>
    <path class="fil1" d="M184477 25291c4760,0 8618,-3858 8618,-8617 0,-4760 -3858,-8618 -8618,-8618 -4759,0 -8617,3858 -8617,8618 0,4759 3858,8617 8617,8617z"/>
    <path class="fil1" d="M136511 25291c4760,0 8618,-3858 8618,-8617 0,-4760 -3858,-8618 -8618,-8618 -4759,0 -8617,3858 -8617,8618 0,4759 3858,8617 8617,8617z"/>
    <path class="fil1" d="M160747 49876c4759,0 8617,-3857 8617,-8616 0,-4759 -3858,-8616 -8617,-8616 -4759,0 -8616,3857 -8616,8616 0,4759 3857,8616 8616,8616z"/>
    <path class="fil1" d="M208831 49876c4759,0 8616,-3857 8616,-8616 0,-4759 -3857,-8616 -8616,-8616 -4760,0 -8618,3857 -8618,8616 0,4759 3858,8616 8618,8616z"/>
    <path class="fil1" d="M232648 74112c4759,0 8617,-3858 8617,-8618 0,-4759 -3858,-8617 -8617,-8617 -4760,0 -8618,3858 -8618,8617 0,4760 3858,8618 8618,8618z"/>
    <path class="fil1" d="M232648 123313c4759,0 8617,-3858 8617,-8617 0,-4759 -3858,-8617 -8617,-8617 -4760,0 -8618,3858 -8618,8617 0,4759 3858,8617 8618,8617z"/>
    <path class="fil1" d="M136511 123313c4760,0 8618,-3858 8618,-8617 0,-4759 -3858,-8617 -8618,-8617 -4759,0 -8617,3858 -8617,8617 0,4759 3858,8617 8617,8617z"/>
    <path class="fil1" d="M208831 98808c4759,0 8616,-3858 8616,-8617 0,-4759 -3857,-8617 -8616,-8617 -4760,0 -8618,3858 -8618,8617 0,4759 3858,8617 8618,8617z"/>
    <path class="fil1" d="M184477 74113c4760,0 8618,-3858 8618,-8617 0,-4760 -3858,-8617 -8618,-8617 -4759,0 -8617,3857 -8617,8617 0,4759 3858,8617 8617,8617z"/>
    <path class="fil1" d="M184715 126902c6742,0 12208,-5464 12208,-12206 0,-6742 -5466,-12207 -12208,-12207 -6742,0 -12206,5465 -12206,12207 0,6742 5464,12206 12206,12206z"/>
   </g>
  </g>
 </g>
</svg>
