<?xml version="1.0" encoding="UTF-8"?>
<!DOCTYPE svg PUBLIC "-//W3C//DTD SVG 1.1//EN" "http://www.w3.org/Graphics/SVG/1.1/DTD/svg11.dtd">
<!-- Creator: CorelDRAW 2021 (64 Bit) -->
<svg xmlns="http://www.w3.org/2000/svg" xml:space="preserve" width="29.6332mm" height="11.0066mm" version="1.1" style="shape-rendering:geometricPrecision; text-rendering:geometricPrecision; image-rendering:optimizeQuality; fill-rule:evenodd; clip-rule:evenodd"
viewBox="0 0 296332 110066"
 xmlns:xlink="http://www.w3.org/1999/xlink"
 xmlns:xodm="http://www.corel.com/coreldraw/odm/2003">
 <defs>
  <style type="text/css">
   <![CDATA[
    .fil1 {fill:#666666}
    .fil0 {fill:#666666;fill-rule:nonzero}
   ]]>
  </style>
 </defs>
 <g id="Camada_x0020_1" visibility="hidden">
  <metadata id="CorelCorpID_0Corel-Layer"/>
  <g id="Wordmark2_white_RGB.svg">
   <g id="Livello_2" data-name="Livello 2">
    <g id="Livello_1-2" data-name="Livello 1">
     <path class="fil0" d="M177798 47000l-8366 0 13 15653c0,4575 -1961,8275 -6535,8275 -4577,0 -6556,-3700 -6556,-8275l0 -15639 -8345 0 -2 15639c0,9040 5811,16366 14852,16366 9038,0 14937,-7326 14937,-16366l2 -15653z"/>
     <rect class="fil0" x="253237" y="37461" width="8325" height="40751"/>
     <polygon class="fil0" points="267709,38964 267709,37500 274197,37500 274197,38964 271823,38964 271823,45417 270083,45417 270083,38964 "/>
     <polygon class="fil0" points="277555,37500 279407,42944 279429,42944 281180,37500 283633,37500 283633,45417 282002,45417 282002,39806 281980,39806 280040,45417 278698,45417 276758,39862 276735,39862 276735,45417 275106,45417 275106,37500 "/>
     <g>
      <path class="fil0" d="M141204 46659c-7176,-1656 -11703,5473 -11892,5856 -92,187 -95,297 -413,289 -262,-6 -292,-289 -292,-289l-891 -5454 -7458 0 0 31124 8360 0 0 -16847c0,-1376 3707,-7977 10890,-6278 3632,860 5174,2401 5174,2401l0 -9482c-1091,-598 -2263,-1045 -3478,-1319l0 -1zm0 0l0 0 0 0z"/>
     </g>
     <g>
      <path class="fil0" d="M197245 54545c0,1 2,1 2,1 4606,0 8342,3735 8342,8341 0,4606 -3736,8342 -8342,8342 -4606,0 -8341,-3736 -8341,-8342 0,0 0,-2 0,-2 1,-4604 3735,-8338 8340,-8339l-1 -1zm-8103 33892l0 -11199 2 2 3 -4194c0,0 12,-336 315,-339 269,-4 330,175 396,339 633,1578 4119,7585 11855,5701 7100,-2002 12005,-8483 12005,-15860 0,-9099 -7379,-16479 -16479,-16479 -9099,0 -16479,7377 -16479,16477l0 25551 8382 1z"/>
     </g>
     <g>
      <path class="fil0" d="M241714 62886c0,-1 0,1 0,1 0,4606 -3736,8342 -8342,8342 -4606,0 -8342,-3736 -8342,-8342 0,-4606 3736,-8341 8342,-8341 0,0 1,0 1,0 4605,1 8339,3734 8341,8339l0 1zm-238 15313l8382 0 0 -15313c0,-9101 -7379,-16478 -16479,-16478 -9099,0 -16478,7379 -16478,16479 0,7377 4905,13857 12004,15859 7736,1885 11222,-4124 11855,-5701 66,-164 126,-342 396,-340 303,4 315,340 315,340l5 5154zm0 0l0 0 0 0z"/>
     </g>
     <g>
      <path class="fil0" d="M96340 44498l-3360 0 0 26576 3451 89c7080,0 11639,-644 11639,-13374 0,-12207 -4025,-13291 -11730,-13291l0 0zm-2269 33636l-9510 0 0 -40690 10204 0c12354,0 21725,2268 21725,20345 0,17904 -9926,20345 -22419,20345l0 0zm0 0l0 0 0 0z"/>
     </g>
     <g>
      <path class="fil0" d="M48842 35832c-4709,-4706 -9201,-9192 -10538,-14252 -1337,5060 -5830,9546 -10537,14252 -7061,7057 -15068,15055 -15068,27050 1,14139 11467,25605 25606,25605 14139,0 25606,-11466 25606,-25605 0,-11995 -8006,-19994 -15069,-27050l0 0zm-25259 33017c-1570,-54 -7365,-10041 3385,-20675l7113 7770c116,114 181,270 181,432 0,185 -84,360 -228,475 -1698,1741 -8932,8996 -9832,11504 -185,518 -456,499 -619,493l0 1zm14722 13163c0,-1 0,-1 0,-1 -4863,0 -8806,-3943 -8806,-8806 0,0 0,0 0,0 32,-2135 809,-4194 2195,-5817 1588,-1941 6610,-7403 6610,-7403 0,0 4945,5542 6598,7385 1422,1580 2210,3633 2210,5759 0,25 0,52 0,76 0,0 0,0 0,0 0,4863 -3944,8806 -8807,8806l0 1zm16856 -14281c-190,415 -621,1108 -1202,1129 -1036,38 -1146,-493 -1912,-1626 -1681,-2488 -16350,-17819 -19094,-20784 -2413,-2608 -340,-4446 622,-5410 1207,-1208 4729,-4729 4729,-4729 0,0 10503,9966 14878,16775 4375,6808 2868,12700 1979,14645z"/>
     </g>
    </g>
   </g>
  </g>
 </g>
 <g id="Camada_x0020_2">
  <metadata id="CorelCorpID_1Corel-Layer"/>
  <g id="_799387920">
   <path class="fil1" d="M106028 55033c0,12485 -12365,18249 -23390,18249 -10961,0 -23390,-5872 -23390,-18249 0,-12465 12360,-18249 23390,-18249 11094,0 23390,5668 23390,18249zm-23390 -8660c4496,0 8143,3877 8143,8660 0,4783 -3647,8660 -8143,8660 -4496,0 -8142,-3877 -8142,-8660 0,-4783 3646,-8660 8142,-8660z"/>
   <path class="fil1" d="M46926 37688c4994,0 9218,4208 9151,9224 -3,2369 -1005,4700 -2676,6378 2712,2602 4814,5641 4814,9564 0,5302 -4338,9642 -9640,9642 -11534,0 -23060,-13 -34587,-13 -622,0 -1142,-452 -1247,-1044l-42 -32482c0,-697 571,-1270 1266,-1267 10985,62 21975,-2 32961,-2zm-5624 21842c1232,0 2239,909 2239,2019 0,1197 -1105,2021 -2239,2021 -4240,0 -9347,1 -13587,1 -335,0 -611,-273 -611,-609l0 -2822c0,-335 275,-610 611,-610l13587 0zm-1580 -13058c1180,0 2144,869 2144,1936 0,1143 -1059,1934 -2144,1934 -4062,0 -7972,1 -12034,1 -321,0 -584,-263 -584,-585l0 -2703c0,-321 263,-583 584,-583l12034 0z"/>
   <path class="fil1" d="M212740 69291l-1188 2523c-203,423 -558,722 -986,722 -4325,0 -8663,-2 -12995,-2 -624,0 -780,-438 -568,-1054 4761,-11050 9961,-21847 14897,-32803 330,-617 873,-1052 1498,-1052 4277,0 8554,0 12832,0 623,0 1167,435 1499,1052 4935,10956 10134,21753 14896,32803 213,616 56,1054 -569,1054 -4331,0 -8669,2 -12994,2 -428,0 -783,-299 -987,-722l-1187 -2523c-4716,0 -9432,0 -14148,0zm7190 -19198l3389 9243c30,81 84,233 0,233l-7010 0c-87,0 -31,-148 0,-233l3389 -9243c30,-86 204,-78 232,0z"/>
   <path class="fil1" d="M154360 71307c2,696 571,1266 1266,1266 12717,2 25431,-9 38170,2 253,-45 446,-268 446,-532 0,-2602 -2,-5217 0,-7818 0,-265 -193,-486 -446,-532l-24464 -10c-319,0 -582,-261 -582,-582l0 -2980c0,-320 263,-580 582,-580l19875 1c251,-45 444,-266 444,-530 0,-2628 0,-5256 0,-7884 0,-263 -193,-485 -444,-529l-19875 1c-319,0 -582,-261 -582,-580l0 -2978c0,-320 263,-580 582,-580l24464 -12c253,-44 446,-267 446,-531 -2,-2601 0,-5203 0,-7804 0,-264 -193,-486 -446,-530 -12739,10 -25453,0 -38170,0 -695,0 -1264,570 -1266,1267 -20,10819 -20,21635 0,32455z"/>
   <path class="fil1" d="M244907 71266c1,696 570,1265 1266,1265 12332,2 24661,-10 37014,0 253,-44 446,-265 446,-528 0,-2603 0,-5219 0,-7821 0,-263 -193,-485 -446,-529 -7851,-3 -15708,-12 -23556,-12 -319,0 -581,-263 -581,-580 0,-8338 0,-16677 -3,-25012 -44,-251 -267,-444 -530,-444 -2602,0 -10491,0 -13092,0 -264,0 -485,193 -530,444 6,11070 -8,22145 12,33217z"/>
   <path class="fil1" d="M140609 37687c5884,0 10754,4957 10708,10824 58,4720 -3128,8853 -7429,10281 -43,53 -57,108 -33,168 114,312 311,624 559,1025 2400,3852 4777,7703 7244,11493 346,574 56,1048 -565,1048 -4663,0 -9324,5 -13985,5 -696,0 -1026,-514 -1350,-1069 -668,-1093 -5865,-9789 -6700,-11161 -330,-535 -641,-835 -1184,-835 -1652,0 -3303,6 -4951,6 -618,0 -1136,451 -1240,1040 -5,3655 -6,7311 -11,10971 -106,587 -622,1037 -1240,1037 -3748,0 -7188,0 -10926,0 -618,0 -1135,-450 -1238,-1037 -15,-10838 -39,-21718 -52,-32570 -2,-692 566,-1259 1259,-1259 10373,0 20767,33 31134,33zm-6464 8913c1172,0 2132,865 2132,1924 0,1139 -1053,1922 -2132,1922 -4038,0 -7836,3 -11875,3 -319,0 -580,-261 -580,-580l0 -2687c0,-321 261,-582 580,-582l11875 0z"/>
  </g>
 </g>
</svg>
