<?xml version="1.0" encoding="UTF-8"?>
<!DOCTYPE svg PUBLIC "-//W3C//DTD SVG 1.1//EN" "http://www.w3.org/Graphics/SVG/1.1/DTD/svg11.dtd">
<!-- Creator: CorelDRAW 2021 (64 Bit) -->
<svg xmlns="http://www.w3.org/2000/svg" xml:space="preserve" width="50mm" height="10mm" version="1.1" style="shape-rendering:geometricPrecision; text-rendering:geometricPrecision; image-rendering:optimizeQuality; fill-rule:evenodd; clip-rule:evenodd"
viewBox="0 0 500000 100000"
 xmlns:xlink="http://www.w3.org/1999/xlink"
 xmlns:xodm="http://www.corel.com/coreldraw/odm/2003">
 <defs>
  <style type="text/css">
   <![CDATA[
    .str0 {stroke:#CCCCCC;stroke-width:1764;stroke-miterlimit:22.9256}
    .fil0 {fill:none;fill-rule:nonzero}
    .fil1 {fill:#CCCCCC;fill-rule:nonzero}
   ]]>
  </style>
 </defs>
 <g id="Camada_x0020_1">
  <metadata id="CorelCorpID_0Corel-Layer"/>
  <path class="fil0 str0" d="M65103 23081c-11673,0 -21162,9469 -21162,21163 0,1133 84,2267 273,3338 2729,-7138 10203,-12282 19000,-12282 7348,0 13772,3590 17278,8923l63 0c2268,0 4178,713 5606,1952 63,-630 84,-1302 84,-1952 0,-11673 -9469,-21142 -21142,-21142z"/>
  <path class="fil0 str0" d="M86161 46175c-1428,-1239 -3338,-1952 -5606,-1952l-63 0c-6214,42 -12765,5437 -14654,12113 -1008,3549 -462,6740 1176,8965 -630,63 -1281,84 -1932,84 -10539,0 -19273,-7705 -20889,-17803 -714,1889 -1113,3905 -1113,6004 0,5186 2372,9847 6172,13164 2352,1868 5039,3338 7957,4283 2478,797 5102,1238 7831,1238 7579,0 14381,-3338 19021,-8628 1596,-1827 2939,-3884 3968,-6110 147,-399 294,-819 399,-1218 1218,-4240 231,-7977 -2267,-10140z"/>
  <path class="fil1" d="M223570 44978l0 20848c0,210 -168,378 -378,378l-4871 0c-210,0 -378,-168 -378,-378l0 -19021c0,-6026 -3296,-9553 -8964,-9553 -5396,0 -9616,3758 -9616,9700l0 18895c0,210 -168,378 -378,378l-4870 0c-210,0 -378,-168 -378,-378l0 -19021c0,-6026 -3297,-9553 -8965,-9553 -5249,0 -9658,3611 -9658,9700l0 18895c0,210 -167,378 -377,378l-4829 0c-210,0 -378,-168 -378,-378l0 -32877c0,-210 168,-378 378,-378l4808 0c210,0 377,168 377,378l0 2792c0,357 441,525 672,252 2688,-3044 6551,-4136 10036,-4136 5269,0 9489,2246 11736,5983 147,252 504,252 650,0 2751,-4493 7579,-5983 11841,-5983 8020,21 13542,5248 13542,13079zm39512 3968c0,9868 -7181,17027 -16334,17027 -4745,0 -8335,-1680 -10854,-4325 -231,-252 -651,-63 -651,273l0 16733c0,210 -168,378 -378,378l-4829 0c-210,0 -378,-168 -378,-378l0 -45663c0,-210 168,-378 378,-378l4829 0c210,0 378,168 378,378l0 2981c0,336 420,525 651,273 2519,-2646 6130,-4325 10854,-4325 9132,0 16334,7159 16334,17026zm-28196 0c0,6698 4598,11757 11211,11757 6781,0 11211,-5248 11211,-11757 0,-6487 -4535,-11736 -11211,-11736 -6613,0 -11211,5060 -11211,11736zm91704 -9426c-105,189 -336,252 -525,126 -2162,-1344 -6109,-2813 -10182,-2813 -4472,0 -7369,1889 -7369,4849 0,2604 2372,3821 6319,4304l3779 483c6949,924 11043,3842 11043,9259 0,6214 -5563,10245 -14465,10245 -3926,0 -9217,-924 -13458,-3989 -167,-126 -209,-357 -104,-525l2204 -3527c126,-189 378,-231 546,-105 2414,1785 5626,3212 10854,3212 5375,0 8671,-1763 8671,-4975 0,-2415 -2121,-3926 -6572,-4472l-3779 -441c-7327,-882 -10854,-4199 -10854,-9154 0,-6256 5186,-10035 13143,-10035 4997,0 9573,1301 12743,3338 168,105 231,336 126,504l-2120 3716zm28679 0c-105,189 -336,252 -525,126 -2163,-1344 -6110,-2813 -10183,-2813 -4472,0 -7369,1889 -7369,4849 0,2604 2373,3821 6320,4304l3779 483c6949,924 11043,3842 11043,9259 0,6214 -5564,10245 -14466,10245 -3925,0 -9216,-924 -13457,-3989 -168,-126 -210,-357 -105,-525l2204 -3527c126,-189 378,-231 546,-105 2415,1785 5627,3212 10854,3212 5354,0 8671,-1763 8671,-4975 0,-2415 -2120,-3926 -6571,-4472l-3779 -441c-7327,-882 -10854,-4199 -10854,-9154 0,-6256 5185,-10035 13142,-10035 4997,0 9574,1301 12744,3338 168,105 231,336 126,504l-2120 3716zm-230835 17824c-147,-147 -378,-147 -525,0 -4829,4556 -11652,4430 -16187,-105 -4640,-4640 -4661,-11631 168,-16460 4745,-4744 11526,-4786 16166,-398 147,147 378,147 525,0l3212 -3213c147,-147 147,-398 0,-566 -6991,-6719 -17195,-6656 -23955,105 -6865,6865 -6823,17236 168,24248 6907,6907 17111,7054 23976,483 168,-147 168,-399 0,-567l-3548 -3527zm11925 -8419c210,0 377,-168 377,-378 189,-6634 5102,-11379 11505,-11379 6572,0 11526,4913 11526,11757 0,6719 -4765,11547 -11148,11715 -210,0 -378,168 -378,378l0 4535c0,210 189,399 399,378 9700,-189 16859,-7453 16859,-17006 0,-9699 -7369,-17026 -17258,-17026 -9762,0 -17089,7117 -17299,16606 0,210 168,399 378,399l5039 0 0 21zm161531 -16312l-4828 0c-210,0 -378,168 -378,378l0 2918c-2981,-2667 -6928,-4241 -11400,-4241 -9700,0 -17027,7369 -17027,17257 0,9763 7117,17090 16607,17300 210,0 399,-168 399,-378l0 -5018c0,-210 -168,-378 -378,-378 -6634,-189 -11379,-5101 -11379,-11526 0,-6571 4913,-11526 11757,-11526 5836,0 11400,4073 11400,8734l0 19693c0,210 168,378 378,378l4828 0c210,0 378,-168 378,-378l0 -32835c21,-210 -147,-378 -357,-378z"/>
  <path class="fil1" d="M151874 52452l1637 -6109c357,-1302 -840,-2498 -2162,-2162l-6110 1637c-1301,357 -1742,1974 -777,2939l4472 4472c966,966 2604,525 2940,-777z"/>
  <circle class="fil1" cx="366669" cy="62173" r="4115"/>
  <path class="fil1" d="M458436 54111c-3968,0 -5795,-2036 -5795,-6004l0 -24459 -12177 0 0 18160c-2771,-5941 -8796,-10056 -15788,-10056 -6991,0 -13016,4115 -15787,10056l0 -9678 -12009 0 0 17089c0,3086 -1617,5165 -4346,5165 -2708,0 -4346,-2100 -4346,-5165l0 -17089 -12177 0 0 17236c0,10561 6487,17195 16502,17195 8062,0 13814,-4472 15683,-11715 2351,6823 8838,11715 16438,11715 7516,0 13920,-4766 16355,-11442 1806,7747 7663,11169 15515,11169l3086 0 0 -12177 -1154 0zm-33739 273c-2876,0 -5227,-2351 -5227,-5228 0,-2876 2351,-5227 5227,-5227 2877,0 5228,2351 5228,5227 -21,2877 -2372,5228 -5228,5228z"/>
  <path class="fil0 str0" d="M65061 72313c13983,0 25320,-11337 25320,-25319 0,-13982 -11337,-25320 -25320,-25320 -13982,0 -25319,11338 -25319,25320 0,13982 11337,25319 25319,25319z"/>
 </g>
</svg>
