<?xml version="1.0" encoding="UTF-8"?>
<!DOCTYPE svg PUBLIC "-//W3C//DTD SVG 1.1//EN" "http://www.w3.org/Graphics/SVG/1.1/DTD/svg11.dtd">
<!-- Creator: CorelDRAW 2021 (64 Bit) -->
<svg xmlns="http://www.w3.org/2000/svg" xml:space="preserve" width="29.6332mm" height="11.0066mm" version="1.1" style="shape-rendering:geometricPrecision; text-rendering:geometricPrecision; image-rendering:optimizeQuality; fill-rule:evenodd; clip-rule:evenodd"
viewBox="0 0 296332 110066"
 xmlns:xlink="http://www.w3.org/1999/xlink"
 xmlns:xodm="http://www.corel.com/coreldraw/odm/2003">
 <defs>
  <style type="text/css">
   <![CDATA[
    .fil0 {fill:#666666;fill-rule:nonzero}
    .fil1 {fill:#B3B3B3;fill-rule:nonzero}
   ]]>
  </style>
 </defs>
 <g id="Camada_x0020_1">
  <metadata id="CorelCorpID_0Corel-Layer"/>
  <g id="Wordmark2_white_RGB.svg">
   <g id="Livello_2" data-name="Livello 2">
    <g id="Livello_1-2" data-name="Livello 1">
     <path class="fil0" d="M177798 47000l-8366 0 13 15653c0,4575 -1961,8275 -6535,8275 -4577,0 -6556,-3700 -6556,-8275l0 -15639 -8345 0 -2 15639c0,9040 5811,16366 14852,16366 9038,0 14937,-7326 14937,-16366l2 -15653z"/>
     <rect class="fil0" x="253237" y="37461" width="8325" height="40751"/>
     <polygon class="fil0" points="267709,38964 267709,37500 274197,37500 274197,38964 271823,38964 271823,45417 270083,45417 270083,38964 "/>
     <polygon class="fil0" points="277555,37500 279407,42944 279429,42944 281180,37500 283633,37500 283633,45417 282002,45417 282002,39806 281980,39806 280040,45417 278698,45417 276758,39862 276735,39862 276735,45417 275106,45417 275106,37500 "/>
     <g>
      <path class="fil0" d="M141204 46659c-7176,-1656 -11703,5473 -11892,5856 -92,187 -95,297 -413,289 -262,-6 -292,-289 -292,-289l-891 -5454 -7458 0 0 31124 8360 0 0 -16847c0,-1376 3707,-7977 10890,-6278 3632,860 5174,2401 5174,2401l0 -9482c-1091,-598 -2263,-1045 -3478,-1319l0 -1zm0 0l0 0 0 0z"/>
     </g>
     <g>
      <path class="fil0" d="M197245 54545c0,1 2,1 2,1 4606,0 8342,3735 8342,8341 0,4606 -3736,8342 -8342,8342 -4606,0 -8341,-3736 -8341,-8342 0,0 0,-2 0,-2 1,-4604 3735,-8338 8340,-8339l-1 -1zm-8103 33892l0 -11199 2 2 3 -4194c0,0 12,-336 315,-339 269,-4 330,175 396,339 633,1578 4119,7585 11855,5701 7100,-2002 12005,-8483 12005,-15860 0,-9099 -7379,-16479 -16479,-16479 -9099,0 -16479,7377 -16479,16477l0 25551 8382 1z"/>
     </g>
     <g>
      <path class="fil0" d="M241714 62886c0,-1 0,1 0,1 0,4606 -3736,8342 -8342,8342 -4606,0 -8342,-3736 -8342,-8342 0,-4606 3736,-8341 8342,-8341 0,0 1,0 1,0 4605,1 8339,3734 8341,8339l0 1zm-238 15313l8382 0 0 -15313c0,-9101 -7379,-16478 -16479,-16478 -9099,0 -16478,7379 -16478,16479 0,7377 4905,13857 12004,15859 7736,1885 11222,-4124 11855,-5701 66,-164 126,-342 396,-340 303,4 315,340 315,340l5 5154zm0 0l0 0 0 0z"/>
     </g>
     <g>
      <path class="fil0" d="M96340 44498l-3360 0 0 26576 3451 89c7080,0 11639,-644 11639,-13374 0,-12207 -4025,-13291 -11730,-13291l0 0zm-2269 33636l-9510 0 0 -40690 10204 0c12354,0 21725,2268 21725,20345 0,17904 -9926,20345 -22419,20345l0 0zm0 0l0 0 0 0z"/>
     </g>
     <g>
      <path class="fil0" d="M48842 35832c-4709,-4706 -9201,-9192 -10538,-14252 -1337,5060 -5830,9546 -10537,14252 -7061,7057 -15068,15055 -15068,27050 1,14139 11467,25605 25606,25605 14139,0 25606,-11466 25606,-25605 0,-11995 -8006,-19994 -15069,-27050l0 0zm-25259 33017c-1570,-54 -7365,-10041 3385,-20675l7113 7770c116,114 181,270 181,432 0,185 -84,360 -228,475 -1698,1741 -8932,8996 -9832,11504 -185,518 -456,499 -619,493l0 1zm14722 13163c0,-1 0,-1 0,-1 -4863,0 -8806,-3943 -8806,-8806 0,0 0,0 0,0 32,-2135 809,-4194 2195,-5817 1588,-1941 6610,-7403 6610,-7403 0,0 4945,5542 6598,7385 1422,1580 2210,3633 2210,5759 0,25 0,52 0,76 0,0 0,0 0,0 0,4863 -3944,8806 -8807,8806l0 1zm16856 -14281c-190,415 -621,1108 -1202,1129 -1036,38 -1146,-493 -1912,-1626 -1681,-2488 -16350,-17819 -19094,-20784 -2413,-2608 -340,-4446 622,-5410 1207,-1208 4729,-4729 4729,-4729 0,0 10503,9966 14878,16775 4375,6808 2868,12700 1979,14645z"/>
     </g>
    </g>
   </g>
  </g>
 </g>
 <g id="Camada_x0020_2" visibility="hidden">
  <metadata id="CorelCorpID_1Corel-Layer"/>
  <path class="fil1" d="M71888 46231l-6554 0c-312,0 -578,109 -796,327 -219,219 -328,484 -328,796l0 23409c0,312 -101,578 -304,796 -203,219 -476,328 -819,328l-7023 0c-312,0 -578,-109 -796,-328 -219,-218 -328,-484 -328,-796l0 -23409c0,-312 -101,-577 -304,-796 -203,-218 -476,-327 -819,-327l-6649 0c-312,0 -577,-110 -795,-328 -219,-218 -328,-484 -328,-796l0 -6367c0,-312 109,-578 328,-796 218,-219 483,-328 795,-328l24720 0c344,0 617,109 820,328 203,218 304,484 304,796l0 6367c0,312 -101,578 -304,796 -203,218 -476,328 -820,328z"/>
  <path id="_1" class="fil1" d="M75816 38787c0,-312 109,-578 328,-796 218,-219 476,-328 788,-328l7038 0c312,0 570,109 788,328 219,218 328,484 328,796l0 18961c0,1217 195,2224 585,3020 398,796 882,1420 1460,1872 577,453 1201,773 1857,960 655,187 1256,281 1787,281 530,0 1131,-94 1786,-281 656,-187 1272,-507 1834,-960 562,-452 1038,-1076 1436,-1872 390,-796 585,-1803 585,-3020l0 -18961c0,-312 109,-578 328,-796 218,-219 476,-328 788,-328l7038 0c312,0 570,109 788,328 219,218 328,484 328,796l0 18961c0,2216 -351,4229 -1053,6039 -703,1811 -1701,3356 -3012,4635 -1311,1280 -2887,2271 -4721,2973 -1842,703 -3878,1054 -6125,1054 -2248,0 -4284,-351 -6126,-1054 -1834,-702 -3410,-1693 -4721,-2973 -1311,-1279 -2317,-2824 -3035,-4635 -718,-1810 -1077,-3823 -1077,-6039l0 -18961z"/>
  <path id="_2" class="fil1" d="M144119 38740l0 32023c0,312 -109,578 -328,796 -218,219 -484,328 -796,328l-6913 0c-312,0 -640,-94 -983,-281 -344,-187 -601,-406 -788,-655l-12197 -17183c-187,-249 -382,-351 -585,-304 -203,47 -304,226 -304,539l0 16760c0,312 -109,578 -328,796 -218,219 -491,328 -803,328l-7008 0c-312,0 -585,-109 -803,-328 -219,-218 -328,-484 -328,-796l0 -32023c0,-312 109,-578 328,-796 218,-219 484,-328 796,-328l7022 0c312,0 640,86 983,258 344,171 609,382 796,632l12173 17182c187,250 382,359 585,328 203,-32 305,-203 305,-515l0 -16761c0,-312 109,-578 327,-796 219,-219 484,-328 796,-328l6929 0c312,0 578,109 796,328 219,218 328,484 328,796z"/>
  <path id="_3" class="fil1" d="M182551 38740l0 32023c0,312 -109,578 -328,796 -218,219 -484,328 -796,328l-6913 0c-312,0 -640,-94 -983,-281 -344,-187 -601,-406 -788,-655l-12197 -17183c-187,-249 -382,-351 -585,-304 -203,47 -304,226 -304,539l0 16760c0,312 -109,578 -328,796 -218,219 -491,328 -803,328l-7008 0c-312,0 -585,-109 -803,-328 -219,-218 -328,-484 -328,-796l0 -32023c0,-312 109,-578 328,-796 218,-219 484,-328 796,-328l7022 0c312,0 640,86 983,258 344,171 609,382 796,632l12173 17182c187,250 382,359 585,328 203,-32 305,-203 305,-515l0 -16761c0,-312 109,-578 327,-796 219,-219 484,-328 796,-328l6929 0c312,0 578,109 796,328 219,218 328,484 328,796z"/>
  <path id="_4" class="fil1" d="M197995 47354l0 1967c0,312 110,577 328,796 219,218 484,327 796,327l12688 0c312,0 577,110 796,328 218,219 327,484 327,796l0 6461c0,312 -109,577 -327,796 -219,218 -484,328 -796,328l-12688 0c-312,0 -577,109 -796,327 -218,219 -328,484 -328,796l0 1779c0,312 110,578 328,796 219,219 484,328 796,328l14560 0c312,0 578,109 796,328 219,218 328,483 328,795l0 6461c0,312 -109,578 -328,796 -218,219 -484,328 -796,328l-23830 0c-312,0 -577,-109 -796,-328 -218,-218 -328,-484 -328,-796l0 -32023c0,-312 110,-578 328,-796 219,-219 484,-328 796,-328l23830 0c312,0 578,109 796,328 219,218 328,484 328,796l0 6367c0,312 -109,578 -328,796 -218,218 -484,328 -796,328l-14560 0c-312,0 -577,109 -796,327 -218,219 -328,484 -328,796z"/>
  <path id="_5" class="fil1" d="M228134 71887l-7008 0c-312,0 -585,-109 -803,-328 -219,-218 -328,-484 -328,-796l0 -32023c0,-312 109,-578 328,-796 218,-219 484,-328 796,-328l14560 0c1810,0 3480,305 5010,913 1529,609 2832,1459 3909,2552 1077,1092 1919,2387 2528,3886 609,1498 913,3152 913,4962 0,999 -117,1990 -351,2973 -234,983 -570,1912 -1007,2786 -437,874 -952,1662 -1545,2364 -593,703 -1264,1288 -2013,1756 -250,187 -413,414 -492,679 -78,265 -23,523 164,772 1186,1561 2435,3168 3746,4823 1311,1654 2481,3168 3511,4541 187,250 234,523 141,819 -94,297 -297,445 -609,445l-8708 0c-312,0 -648,-86 -1007,-257 -359,-172 -632,-383 -819,-633 -991,-1310 -1982,-2637 -2957,-3979 -984,-1342 -1951,-2700 -2911,-4073 -187,-250 -453,-461 -796,-632 -343,-172 -663,-258 -975,-258l-1030 0c-305,0 -570,109 -788,328 -219,218 -328,484 -328,796l0 7584c0,312 -109,578 -328,796 -218,219 -491,328 -803,328zm2247 -18446l4939 0c375,0 765,-71 1163,-211 405,-140 780,-359 1123,-655 336,-297 617,-664 835,-1101 219,-437 328,-952 328,-1545 0,-312 -55,-679 -164,-1100 -109,-421 -296,-827 -562,-1217 -257,-390 -616,-718 -1069,-983 -452,-266 -998,-398 -1654,-398l-4939 0c-305,0 -570,109 -788,327 -219,219 -328,484 -328,796l0 4963c0,312 109,577 328,796 218,218 483,328 788,328z"/>
 </g>
</svg>
