<?xml version="1.0" encoding="UTF-8"?>
<!DOCTYPE svg PUBLIC "-//W3C//DTD SVG 1.1//EN" "http://www.w3.org/Graphics/SVG/1.1/DTD/svg11.dtd">
<!-- Creator: CorelDRAW 2021 (64 Bit) -->
<svg xmlns="http://www.w3.org/2000/svg" xml:space="preserve" width="25.4mm" height="25.4mm" version="1.1" style="shape-rendering:geometricPrecision; text-rendering:geometricPrecision; image-rendering:optimizeQuality; fill-rule:evenodd; clip-rule:evenodd"
viewBox="0 0 2540 2540"
 xmlns:xlink="http://www.w3.org/1999/xlink"
 xmlns:xodm="http://www.corel.com/coreldraw/odm/2003">
 <defs>
  <style type="text/css">
   <![CDATA[
    .fil0 {fill:gray}
    .fil1 {fill:#FFCC00}
    .fil3 {fill:gray;fill-rule:nonzero}
    .fil2 {fill:#9C00F7;fill-rule:nonzero}
   ]]>
  </style>
 </defs>
 <g id="Camada_x0020_1" visibility="hidden">
  <metadata id="CorelCorpID_0Corel-Layer"/>
  <g id="_2629280995456">
   <path class="fil0" d="M959.34 1015.12c116.61,-17.96 218.6,-73.51 306.24,-166.65 0,-0.23 0,-0.23 0.24,-0.23l0 0 0 0.23c140.31,148.93 317.25,201.85 531.54,158.27 16.76,179.33 -3.58,346.95 -61.53,502.81 -62.97,169.05 -169.76,324.2 -320.61,465.71 -45.73,43.1 -95.53,84.76 -149.4,124.99l0 0.23 0 0c-0.24,-0.23 -0.24,-0.23 -0.24,-0.23 -53.87,-40.23 -103.67,-81.89 -149.41,-124.99 -150.84,-141.51 -257.63,-296.66 -320.36,-465.71 -47.89,-128.57 -70.16,-265.05 -67.05,-409.43 0.72,-30.89 2.4,-62.02 5.51,-93.38 80.21,16.28 155.15,19.15 225.07,8.38zm0 -42.14c-80.69,14.12 -168.09,5.99 -262.42,-23.7 -6.47,51 -10.29,101.27 -11.01,150.84 0,6.46 -0.24,12.93 -0.24,19.4 0,136.47 22.51,266.25 67.52,390.03 66.32,182.22 181.73,350.78 345.98,505.45 51,47.9 106.31,94.34 166.65,139.6 60.09,-45.26 115.64,-91.7 166.41,-139.6 164.48,-154.67 279.65,-323.23 346.22,-505.45 44.77,-123.78 67.28,-253.56 67.28,-390.03 0,-55.56 -3.6,-112.54 -11.26,-170.24 -230.32,72.78 -419.96,14.84 -568.65,-173.6 -88.11,111.34 -190.11,177.18 -306.48,197.3z"/>
   <path class="fil0" d="M1344.6 1265.33l-56.75 0 -8.86 -30.89 -61.78 0 -8.62 30.89 -55.54 0 66.08 -186.28 59.38 0 66.09 186.28zm112.53 -0.24l0 -186.28 71.83 0 27.53 113.49 27.3 -113.49 71.36 0 0 186.28 -44.54 0 0 -141.98 -34.24 141.98 -40.23 0 -34.48 -141.98 0 141.98 -44.53 0zm307.91 38.55c13.41,-85.24 16.05,-174.06 7.9,-265.78 -199.21,40.72 -368.25,-10.05 -507.12,-152.03l0 -0.25 0 0c-0.24,0 -0.24,0 -0.24,0.25 -89.55,91.7 -191.55,145.33 -306.24,160.9 -63.21,8.37 -130.01,5.5 -200.64,-8.87 -1.92,20.84 -3.12,41.67 -3.84,62.26 -2.63,69.68 1.44,137.68 11.74,203.52l998.44 0zm-805.7 -222.44l6.23 -0.23c13.65,0 26.09,2.64 37.83,7.65 9.81,4.55 19.15,11.02 27.54,19.4 3.35,3.11 6.22,6.47 8.85,10.06l-38.78 23.95c-1.2,-1.21 -2.16,-2.65 -3.36,-3.84 -4.07,-4.55 -8.86,-8.14 -13.65,-10.78 -5.98,-2.86 -12.21,-4.3 -19.15,-4.3 -12.69,0 -23.7,5.02 -32.8,15.08 -9.1,10.06 -13.65,22.03 -13.65,36.4 0,14.12 4.55,26.09 13.65,36.15 8.62,9.58 18.91,14.6 31.12,15.08 0.48,0 1.2,0 1.68,0 12.93,0 23.7,-5.02 32.8,-15.08 2.16,-2.4 4.07,-4.79 5.75,-7.43l36.15 25.63c-2.63,3.35 -5.5,6.46 -8.61,9.58 -17.97,17.95 -39.75,27.05 -65.37,27.05 -1.2,0 -2.4,0 -3.36,0 -24.18,-0.96 -44.77,-9.82 -62.01,-27.05 -18.2,-17.96 -27.3,-39.75 -27.3,-65.37 0,-25.38 9.1,-47.17 27.3,-65.13 2.64,-2.87 5.75,-5.51 8.62,-7.9 14.84,-11.5 31.6,-17.96 50.52,-18.92z"/>
   <polygon class="fil0" points="1228.94,1194.22 1267.49,1194.22 1248.34,1127.18 "/>
   <path class="fil0" d="M773.3 1341.47c28.96,147.86 90.47,282.01 178.14,404.41l0 -404.41 -178.14 0zm985.04 0l-178.39 0 0 404.41c87.82,-122.57 149.35,-256.08 178.39,-404.41zm-221.48 461.4l0 -461.4 -155.16 0 0 626.37c0.96,-0.72 1.67,-1.68 2.88,-2.4 56.99,-52.91 107.74,-107.03 152.28,-162.57zm-192.98 -461.4l-156.36 0 1.44 661.32 76.86 63.22 76.85 -63.22 1.21 -661.32zm-349.34 0l0 461.4c44.77,55.54 95.53,109.66 152.52,162.57 0.96,0.72 1.92,1.68 2.63,2.4l0 -626.37 -155.15 0z"/>
   <polygon class="fil1" points="1265.7,394.01 1312.16,504.64 1431.73,514.64 1340.87,593.01 1368.31,709.82 1265.7,647.62 1163.09,709.82 1190.53,593.01 1099.67,514.64 1219.24,504.64 "/>
  </g>
 </g>
 <g id="Camada_x0020_2" visibility="hidden">
  <metadata id="CorelCorpID_1Corel-Layer"/>
  <g id="_2629281024784">
   <path class="fil0" d="M1168.73 901.93l1.03 56.63c0.16,5.37 1.08,5.91 1.15,11.66l1.02 38.49c-0.04,9.53 1.1,14.82 1.07,24.55l1.06 38.44c0.27,4.84 1.11,5.84 1.11,11.71l1.07 25.62c1.04,34.71 2.1,66.86 3.13,101.5 0.27,8.85 1.17,10.24 1.09,24.54 -0.05,9.01 1.12,15.55 1.08,25.61 -0.04,9.81 1.14,15.49 1.04,25.65 -0.04,4.76 -0.21,7.9 1.7,11.12 1.65,2.76 5.16,4.87 9.01,4.87l203.93 0c9.12,0 10.76,-7.46 10.72,-14.9 -0.06,-10.12 1.09,-16.62 1.04,-25.66 -0.03,-4.18 -0.17,-8.71 -0.05,-12.86 0.27,-8.88 1.14,-10.28 1.08,-24.55l1.87 -37.63c1.17,-8.54 -0.59,-17.57 0.58,-26.11 1.05,-7.67 0.29,-16 0.77,-24.86l1.03 -25.66c0.09,-7.2 1.17,-10.88 1.1,-24.53 -0.11,-19.32 3.34,-56.5 3.23,-75.78l3.03 -75.97c2.18,-19.4 -1.92,-78.53 -4.44,-96.68 -1.79,-12.9 -4.19,-83.94 -5.57,-90.53 -1.25,-5.95 -5.82,-12.3 -12.25,-12.3l-208.21 0c-11.43,0 -12.73,13.41 -12.78,22.45l-3.29 56.51c-2.52,30.67 -6.35,58.34 -6.35,88.67z"/>
   <path class="fil0" d="M884.72 923.29c0,16.57 2.12,34.91 3.96,49.42 5.87,46.25 9.7,98.34 15.57,144.59l10.46 96.31c0.37,4.52 8,79.65 10.18,83.78 1.52,2.86 5.12,4.93 8.95,4.93l151.61 0c8.47,0 13.35,-4.92 12.25,-13.21l-4.81 -76.44c-0.1,-14.07 -2.12,-29.63 -2.08,-38.5 0.03,-6.22 -0.97,-7.26 -1.12,-12.75l-6.08 -101.76c-0.59,-4.26 -0.07,-8.28 -0.29,-12.52l-2.15 -25.62c-0.25,-4.81 0.29,-8.63 -0.44,-13.43 -0.71,-4.71 -0.46,-7.29 -0.59,-12.23l-5.37 -90.73c0,-35.11 7.17,-88.97 19.38,-121.56 11.09,-29.61 22.5,-45.4 -3.25,-42.78 -7.15,0.73 -15.78,2.07 -22.73,2.93 -15.77,1.93 -31.31,4.25 -46.75,5.56l-45.75 5.5c-32.86,4.04 -47.08,13.64 -61.41,42.16 -6.05,12.04 -10.46,23.73 -14.99,37.32 -8.3,24.87 -14.55,56.49 -14.55,89.03z"/>
   <path class="fil0" d="M1483.7 748.18c0,3.7 10.1,29.36 12.2,34.79 8.12,21 15.64,53.94 16.64,77.31 0.6,13.97 3.2,28.79 3.2,43.79 0,10.06 -0.95,15.86 -1.03,25.66l-3.26 50.13c0.06,6.17 -0.62,8.26 -1,12.88 -1.22,15.04 -1.28,35.11 -3.1,51.35 -0.5,4.49 0.19,9.08 -0.31,13.57l-6.22 102.69c-0.15,5.4 -1.1,5.89 -1.14,11.68 -0.04,5.97 -0.38,8.54 -0.87,13 -1.36,12.19 -1.4,39.16 -3.07,51.39l-2.92 51.62c-1.45,9.17 3.32,14.28 12.24,14.28l151.61 0c10.72,0 10.27,-10.13 10.87,-15.82l8.04 -72.04c5.87,-46.26 9.75,-98.11 15.56,-144.6 1.93,-15.43 3.48,-31.56 5.22,-48.16l9.43 -97.35c0,-15.22 -1.93,-34.03 -4.12,-47.13 -5.39,-32.3 -21.07,-88.81 -47.11,-108.78 -17.11,-13.12 -37.4,-13.39 -60.79,-16.08 -12.14,-1.39 -99.83,-13.17 -103.88,-11.88 -2.91,0.92 -6.19,4.43 -6.19,7.7z"/>
   <path class="fil0" d="M1662.01 1638.65l-17.89 -18.42c-1.59,-1.58 -2.78,-2.59 -4.22,-4.32 -1.96,-2.35 -2.02,-2.94 -4.29,-5.31l-81.69 -85.94c-6.24,-6.75 -12.63,-11.61 -18.35,-19.02 -12.13,-15.72 -33,-19.86 -44.99,-6.39 -3.89,4.37 -6.88,10.95 -6.88,18.75l0 284.01c0,2.5 1.78,4.27 4.28,4.27l75.8 0c5.83,0 4.31,-7.9 4.28,-13.88l-0.01 -128.13c4.01,1.07 4.51,3.99 11.48,10.95l22.43 22.41c4.11,4.06 6.42,7.53 10.67,11.75 7.75,7.72 14.66,14.73 22.42,22.42 7.35,7.29 12.77,17.89 26.96,17.89 13.75,0 20.28,-10.14 27.49,-17.35l44.21 -45.49c4.56,-5.72 16.65,-18.82 22.26,-22.58l0 127.06c-0.02,5.87 -1.77,14.95 4.27,14.95 15.17,0 69.26,1.45 80.08,-1.07l0 -279.74c0,-7.48 0.84,-12.95 -1.62,-18.67 -6.68,-15.51 -25.22,-20.74 -38.37,-11.71 -4.06,2.8 -17.29,16.1 -20.42,20.16 -6.03,7.8 -12.84,12.98 -19.42,20.09 -2.13,2.3 -2.26,3.06 -4.26,5.34l-54.45 56.59c-8.99,8.92 -32.81,36.72 -39.77,41.38z"/>
   <path class="fil0" d="M1890.5 1514.79l0 287.22c0,2.5 1.77,4.27 4.27,4.27l76.87 0c3.29,0 4.28,-3.13 4.28,-6.41l0 -228.49 67.26 0c34.95,0 41.03,54.31 9.28,70.14 -12.14,6.05 -32.2,4.6 -49.85,4.6 -0.56,2.4 -1.07,2.46 -1.07,5.34l92.03 146.07c1.63,2.61 3.98,8.75 7.27,8.75l83.28 0c11.67,0 -7.03,-23.95 -12.6,-32.25 -4.71,-7.01 -52.4,-80.05 -53.6,-85.2 10.82,-7.25 20.51,-19.06 26.71,-30.95 12.59,-24.15 12.79,-37.07 12.79,-63.01 0,-14.31 -6.51,-34.67 -11.78,-43.73 -2.83,-4.87 -7.28,-12.47 -10.95,-16.81 -7.68,-9.07 -8.13,-10.15 -16.92,-17.25l-12.23 -9.12c-18.68,-12.51 -40.48,-17.72 -65.56,-17.72l-122.79 0c-8.12,0 -14.1,2.94 -18.47,7.15 -3.93,3.8 -8.22,10.21 -8.22,17.4z"/>
   <path class="fil0" d="M2149.95 1494.51c0,6.43 33.65,70.5 39.15,81.5 13.47,26.94 26.54,53.09 39.86,79.72 9.62,19.24 64.07,131.13 69.57,139.7 6,9.34 14.39,10.85 24.39,10.85 16.56,0 23.21,-19.72 29.18,-31.68 7.1,-14.18 13.55,-27.1 20.65,-41.28l102.49 -205c3.66,-7.31 6.67,-13.33 10.33,-20.64 2.85,-5.7 11.17,-17.44 -1.43,-17.44l-80.07 0c-7.63,0 -8.12,6.63 -13.17,16.72 -3.54,7.06 -6.44,12.87 -9.97,19.94 -6.97,13.94 -13.31,26.62 -20.29,40.57 -6.95,13.9 -12.99,27.05 -19.93,40.93 -3.34,6.68 -18.89,36.5 -19.93,40.93 -3.73,-2.74 -8.29,-14.46 -10.67,-19.22 -3.47,-6.94 -6.7,-13.4 -10.32,-20.65l-50.54 -102.14c-4.67,-9.34 -6.44,-17.08 -13.88,-17.08l-79.01 0c-3.28,0 -6.41,0.99 -6.41,4.27z"/>
   <path class="fil0" d="M695.74 961.72c0,32.88 20.57,141.99 26.07,177.86l24.39 149.65c1.31,8 2.37,13.09 12.53,13.09l67.27 0c3.73,0 6.06,-1.39 7.97,-3.8 4.44,-5.63 0.39,-21.17 -1.11,-31.88 -2.22,-15.76 -3.68,-30.1 -5.85,-45.4l-29.09 -223.96c-4.91,-37.18 -8.87,-60.91 0.52,-98.34 3.14,-12.51 5.16,-22.17 9.86,-33.92 5.99,-14.97 13.71,-29.41 23.19,-41.95 5.1,-6.75 8.39,-9.01 8.39,-15.1 0,-5.16 -3.38,-8.54 -8.54,-8.54 -6.27,0 -48.97,15.41 -55.18,18.49 -32.67,16.23 -54.79,47.9 -68.24,81.25 -6.35,15.75 -12.18,41.08 -12.18,62.55z"/>
   <path class="fil0" d="M1750.63 805.84c0,8.55 1,7.43 7.93,16.62 9.47,12.56 17.97,27.58 23.65,42.55 19.21,50.61 17.54,80.55 10.52,131.34l-17.54 135.14c-5.59,50.85 -14.65,105.66 -20.43,156.91 -0.79,6.97 0.93,13.92 9.75,13.92l67.27 0c9.23,0 11,-3.99 12.37,-12.18 1.25,-7.43 2.24,-14.64 3.33,-21.23l21.21 -129.33c4.74,-30.82 26.08,-148.3 26.08,-175.72 0,-47.35 -23.69,-105.73 -61.29,-134.1 -15.04,-11.34 -26.36,-15.23 -44.82,-21.38 -6.19,-2.07 -38.03,-16.46 -38.03,-2.54z"/>
   <path class="fil0" d="M866.57 1507.32l0 294.69c0,7.41 20.34,4.18 24.56,3.2 2.57,-11.05 1.07,-113.21 1.07,-133.46 0,-45.2 0,-90.4 0,-135.6 3.58,2.4 67.85,91.15 75.81,102.49 23.58,33.59 51.96,69.61 75.81,103.57l25.3 34.48c13.43,17.84 17.09,29.59 32.35,29.59 5.72,0 14.94,-5.83 14.94,-16.02l0 -295.75c0,-7.41 -20.33,-4.19 -24.55,-3.21 -2.58,11.05 -1.07,114.31 -1.07,134.54 0,45.55 0,91.11 0,136.66l-50.64 -68.94c-4.58,-6.06 -8.14,-11.21 -12.67,-17.23 -37.69,-50.08 -75.74,-104.62 -113.64,-155.42 -8.62,-11.56 -18.57,-30.67 -30.19,-30.67 -9.64,0 -17.08,7.43 -17.08,17.08z"/>
   <path class="fil0" d="M440.56 1654.66l-67.27 0 0 -139.87 83.28 0c21.3,0 42.44,6.67 53.14,17.33 7.03,7 10.64,10.22 14.77,20.48 12.11,30.09 4.88,67.95 -18.77,86.07 -15.28,11.72 -38.11,15.99 -65.15,15.99zm-91.83 -163.36c-0.55,2.4 -1.06,2.46 -1.06,5.34l0 303.23c0,2.89 0.51,2.95 1.06,5.34 4.22,0.98 24.56,4.21 24.56,-3.2l0 -122.79 69.4 0c3.45,0 21.06,28.37 23.06,31.39l44.2 64.71c3.55,5.36 7.15,10.18 10.9,15.8 12.29,18.43 6.43,15.16 33.95,15.16 12.41,0 -6.11,-21.18 -11.11,-28.39l-68.97 -100.8c18.43,-0.41 43.69,-12.13 57.93,-26.43 7.9,-7.93 12.59,-14.19 17.13,-25.58 14.19,-35.64 8.02,-86.45 -20.34,-111.61 -15.75,-13.98 -41.27,-23.23 -70.73,-23.23 -14.2,0 -103.68,-1.38 -109.98,1.06z"/>
   <path class="fil0" d="M1923.6 858.16c0,3.44 13.02,16.82 17.73,23.91 5.92,8.9 10.92,17.47 15.35,27.35 18.26,40.69 17.01,72.12 9.93,114.53 -2.37,14.22 -4.52,27.13 -6.86,41.19l-36.7 223.93c-1.38,8.52 3.28,13.25 10.16,13.25 14.34,0 33.88,2.45 39.35,-3.36 2.64,-2.81 2.55,-4.25 3.25,-8.49l21.46 -135.49c2.91,-17.3 23.49,-140.99 23.49,-156.95 0,-46.95 -13.18,-77.42 -36.28,-107.86l-14.65 -15.25c-9.07,-7.66 -26.42,-21.5 -38.34,-23.63 -4.06,-0.73 -7.89,2.75 -7.89,6.87z"/>
   <path class="fil0" d="M569.75 990.55c0,27.01 6.58,58.31 10.99,85.1l24.71 155.73c1.14,7.12 8.25,62.42 12,67.02 1.78,2.19 4.24,3.92 7.82,3.92l32.03 0c16.24,0 8.67,-20.68 6.86,-32.48 -6.52,-42.46 -45.3,-263.82 -45.3,-287.83 0,-80.13 48.05,-119.05 48.05,-122.79 0,-4.59 -2.89,-7.97 -6.36,-8.1 -2.26,-0.08 -8.53,2.72 -10.74,3.81 -6.82,3.38 -13.36,7.19 -19.37,11.6 -34.67,25.45 -60.69,75.58 -60.69,124.02z"/>
   <path class="fil0" d="M167.22 1521.2c0.44,5.27 30.21,81.09 32.98,88.74l33.22 88.5 -133.46 0c6.38,-13.31 41.57,-111.47 49.86,-132.71l17.01 -43.85c0.08,-0.15 0.25,-0.47 0.39,-0.68zm-132.39 279.74c0,7.47 6.16,5.34 21.35,5.34 4.97,0 7.77,-11.97 10.38,-18.45l16.01 -42.72c1.78,-4.57 7.44,-18.07 7.78,-22.11l152.68 0c0.69,2.93 2.68,7.74 3.95,10.99l24.7 65c3.52,9.2 3.33,7.29 23.67,7.29 9.48,0 0.07,-17.48 -2.6,-24.1 -2.81,-6.98 -5.17,-13.02 -7.68,-20.08 -2.44,-6.88 -5.19,-13.77 -7.72,-20.04l-85.11 -220.25c-5.76,-14.26 -8.56,-31.57 -26.08,-31.57 -7.74,0 -13.74,4.68 -16.67,10.02l-53.95 140.37c-5.16,12.74 -9.94,26.07 -15.12,39.34 -2.82,7.22 -4.81,12.84 -7.61,20.15l-23.02 60.26c-2.08,5.22 -14.96,37.12 -14.96,40.56z"/>
   <path class="fil0" d="M1295.79 1521.2c0.32,3.85 55.64,149.45 62.08,165.34 1.45,3.59 3.1,7.56 4.12,11.9l-133.47 0c3.1,-6.46 5.4,-14.44 8.23,-21.67 3.03,-7.78 5.46,-14.55 8.54,-22.42l33.25 -88.47c2.92,-7.82 5.31,-14.7 8.39,-22.57l8.07 -20.76c0.1,-0.18 0.32,-0.53 0.4,-0.67 0.07,-0.15 0.24,-0.47 0.39,-0.68zm-132.4 279.74c0,7.47 6.16,5.34 21.36,5.34 4.14,0 5.25,-4.56 6.31,-7.57l20.22 -53.45c1.81,-4.91 7.28,-17.98 7.63,-22.26l152.69 0 28.67 75.96c3.19,9.33 4.2,7.32 23.64,7.32 9.58,0 -0.03,-17.12 -2.53,-24.16 -15.6,-43.95 -38.33,-96.13 -54.18,-140.14 -13.74,-38.16 -31.68,-81.45 -46.4,-120.16 -5.82,-15.29 -8.54,-31.58 -26.08,-31.58 -15.83,0 -19.48,16.34 -24.43,30.02l-61.15 159.87c-5.72,15.5 -45.75,116.75 -45.75,120.81z"/>
   <path class="fil0" d="M621 1494.51l0 307.5c0,2.5 1.77,4.27 4.27,4.27l188.98 0c6.24,0 4.27,-9.7 4.27,-20.29 0,-2.5 -1.77,-4.27 -4.27,-4.27l-167.63 0 0 -120.65 130.26 0c7.65,0 7.65,-24.56 0,-24.56l-130.26 0 0 -121.72 158.02 0c6.24,0 4.28,-9.7 4.28,-20.28 0,-2.5 -1.78,-4.27 -4.28,-4.27l-179.37 0c-2.5,0 -4.27,1.77 -4.27,4.27z"/>
   <path class="fil0" d="M529.18 1302.32c7.41,0 23.38,1.19 27.97,-1.92 6.97,-4.7 3.25,-12.64 1.74,-23.53 -5.3,-38.23 -14.32,-86.65 -20.57,-125.69l-17.38 -107.55c-1.86,-11.13 -4.58,-25.04 -4.58,-37.06 0,-33.52 11.46,-65.07 28.83,-89.69 2.79,-3.94 5.71,-7 8.54,-10.68 2.31,-2.99 8.55,-7.91 8.55,-11.74 0,-17.26 -40.03,11.59 -50.64,25.17 -1.67,2.13 -2.43,2.67 -3.98,4.57 -2.3,2.81 -5.45,6.97 -7.26,9.82 -13.26,20.91 -20.19,37.91 -23.88,62.6 -0.57,3.88 -0.96,11.63 -1.52,15.59 -1.38,9.75 5.45,50.24 7.35,61.47l28.21 177.86c1.63,10.19 3.11,19.65 4.74,29.43 1.79,10.81 0.88,21.35 13.88,21.35z"/>
   <path class="fil0" d="M2028.23 894.46c0,3.57 11.74,15.01 16.64,21.8 12.73,17.66 19.18,32.91 24.58,54.43 7.15,28.43 4.79,45.02 -0.03,73.86l-40.13 247.21c-0.49,13.73 16.53,10.56 32.04,10.56 12.81,0 11.99,-10.04 13.73,-20.43 1.71,-10.14 3.18,-19.33 4.6,-29.57 5.09,-36.7 37.99,-223.32 35.87,-239.02 -1.43,-10.55 -1.57,-20.21 -4,-30.24 -5.75,-23.72 -19.33,-50.09 -36.03,-67.54 -6.94,-7.25 -47.27,-39.1 -47.27,-21.06z"/>
   <path class="fil0" d="M2171.31 1021.51c0,24.03 0.03,22.32 -4.12,47.14l-25.03 159.69c-2.23,13.45 -9.29,54.99 -9.29,66.51 0,9.78 20.67,7.47 26.69,7.47 5.43,0 8.66,-3.54 9.91,-8.24 3.18,-11.95 26.88,-160.19 30.36,-181.04 9.38,-56.23 22.03,-99.88 -16,-151.02 -10.65,-14.33 -24.62,-27.72 -40.63,-36.25 -5.91,-3.15 -10.56,-6.75 -18.87,-6.75 -1.24,5.84 1.46,6.11 5.62,10.39 22.97,23.58 41.36,58.44 41.36,92.1z"/>
   <path class="fil0" d="M380.77 1035.4c0,30.86 4.87,46.95 9.76,76.72 3.58,21.78 7.23,43.45 10.98,65.89 3.74,22.38 7.4,44.43 10.98,65.89l8.35 49.31c2.61,11.74 12.03,9.11 27.19,9.11 16.31,0 8.03,-25.61 5.5,-40.73 -1.84,-11.01 -3.2,-20.92 -5.03,-32.34 -3.44,-21.45 -7.18,-42.6 -10.02,-63.65 -1.43,-10.63 -3.26,-20.42 -4.95,-31.36 -2.63,-17.09 -14.33,-86.08 -14.33,-97.78 0,-28.13 2.1,-47.76 15.56,-71.99 2.55,-4.58 3.82,-7.34 6.64,-11.52 6.27,-9.28 24.78,-28.81 24.78,-30.73l0 -3.2c-10.57,0 -27.57,11.44 -34.91,17.4 -10.07,8.17 -16.82,15.15 -24.59,25.6 -12.14,16.33 -25.91,45.46 -25.91,73.38z"/>
   <path class="fil0" d="M285.74 1061.02c0,21.45 31.35,190.85 37.82,225.9 0.9,4.88 2.66,11.28 2.75,15.4 34.42,0 33.95,1.03 29.89,-23.48 -0.88,-5.35 -1.62,-9.77 -2.58,-15.57l-30.8 -181.67c-6.23,-35.76 -6.38,-58.8 10.95,-92.13 4.54,-8.73 15.9,-23.99 23.22,-31.23 23.39,-23.13 -21.9,-5.85 -48.39,30.62 -13.75,18.94 -22.86,47.29 -22.86,72.16z"/>
   <path class="fil0" d="M2271.67 1048.21c0,12.83 -1.88,20.89 -3.82,32.49l-30.8 181.66c-0.93,5.56 -1.69,10.62 -2.66,15.5 -5.31,26.64 -1.98,24.46 29.81,24.46l36.75 -209.89c4.88,-26.81 5.81,-45.41 -2.96,-71.61 -9.22,-27.53 -27.43,-50.91 -51.88,-65.57 -12.68,-7.59 -28.44,-12.49 -13.14,2.46 3.48,3.39 5.18,6.03 8.53,9.62 2.83,3.02 5.42,6.88 7.92,10.24 12.72,17.13 22.25,45.62 22.25,70.64z"/>
  </g>
 </g>
 <g id="Camada_x0020_3">
  <metadata id="CorelCorpID_2Corel-Layer"/>
  <g id="_2629279261488">
   <polygon class="fil2" points="1448.68,1045.93 1577.94,1096.81 1448.68,1144.94 1448.68,1213.69 1670.08,1124.31 1670.08,1069.31 1448.68,979.92 "/>
   <g>
    <path class="fil3" d="M261.96 1301.7c-61.88,0 -107.26,27.5 -111.38,85.26l68.75 0 0 -1.38c1.38,-19.25 19.26,-33 38.51,-31.63 26.12,0 38.5,15.13 38.5,41.26l0 12.37 -31.63 0c-67.38,0 -122.38,20.63 -122.38,85.26l0 2.75c0,52.26 38.5,75.63 85.25,75.63l0 0c28.88,1.38 55.01,-12.37 71.51,-34.38l0 30.26 70.13 0 0 -173.27c-1.37,-66 -46.75,-92.13 -107.26,-92.13zm-15.12 218.64c-24.76,0 -35.76,-12.37 -35.76,-30.25l0 -2.75c0,-23.38 17.88,-33 53.63,-33l28.88 0 0 24.75 0 0c1.37,27.5 -22,41.25 -46.75,41.25z"/>
    <path class="fil3" d="M534.23 1517.59c-34.37,0 -52.25,-23.37 -52.25,-75.63l0 -8.25c0,-50.88 20.63,-75.63 52.25,-75.63 24.76,0 38.51,16.5 42.63,41.25l68.76 0c-5.5,-67.38 -55.01,-97.63 -112.76,-97.63 -68.76,0 -123.76,46.75 -123.76,134.76l0 2.75c0,88.01 52.25,132.01 123.76,132.01l0 0c70.13,0 110.01,-42.63 115.51,-100.38l-66.01 0c-5.5,28.88 -23.37,46.75 -48.13,46.75z"/>
    <path class="fil3" d="M802.38 1517.59c-34.38,0 -52.25,-23.37 -52.25,-75.63l0 -8.25c0,-50.88 20.62,-75.63 52.25,-75.63 24.75,0 38.5,16.5 42.63,41.25l68.75 0c-5.5,-67.38 -55,-97.63 -112.76,-97.63 -68.75,0 -123.75,46.75 -123.75,134.76l0 2.75c0,88.01 52.25,132.01 123.75,132.01l0 0c70.14,0 110.01,-42.63 114.14,-100.38l-64.63 0c-4.13,28.88 -23.38,46.75 -48.13,46.75z"/>
    <path class="fil3" d="M1073.28 1518.97c-31.63,0 -50.88,-17.88 -53.63,-64.63l167.76 0 0 -30.25c0,-85.26 -53.63,-122.39 -118.26,-122.39 -70.13,0 -123.76,48.13 -123.76,134.76l0 5.5c0,86.63 50.88,130.64 125.14,130.64l0 0c67.38,0 108.63,-37.13 115.51,-86.64l-67.38 0.01c-2.75,20.62 -23.38,35.75 -45.38,33zm-4.13 -167.77c28.88,0 46.76,16.51 48.13,55.01l-96.26 0 0 0 0 0 0 0c5.5,-41.25 26.13,-53.63 48.13,-55.01z"/>
    <polygon class="fil3" points="1021.02,1406.21 1021.02,1406.21 1019.65,1406.21 "/>
    <path class="fil3" d="M1382.68 1301.7c-33,-1.37 -63.26,15.13 -78.38,44l0 -38.5 -71.51 0 0 258.52 71.51 0 0 -158.14c0,-2.75 0,-4.12 0,-6.87 1.37,-23.38 22,-42.63 45.37,-41.25 26.13,0 38.51,13.75 38.51,44l0 162.26 72.88 0 0 -173.26c0,-63.26 -31.63,-90.76 -78.38,-90.76z"/>
    <path class="fil3" d="M1595.82 1483.22l0 -122.39 49.5 0 0 -53.63 -49.5 0 0 -78.38 -71.51 30.25 0 48.13 -31.62 0 0 53.63 30.25 0 0 130.64c0,52.25 26.13,78.38 82.51,78.38 13.75,0 27.5,-1.38 41.25,-5.5l0 -56.38c-8.25,2.75 -16.5,4.12 -24.75,4.12 -16.5,0 -26.13,-9.62 -26.13,-28.87z"/>
    <path class="fil3" d="M1844.72 1468.09c0,2.75 0,4.13 0,6.88 -1.38,23.37 -22.01,42.62 -45.38,41.25 -26.13,0 -37.13,-13.75 -37.13,-44l0 -165.02 -72.88 0 0 174.64c0,60.51 34.38,89.38 81.13,89.38 31.63,1.38 60.5,-15.12 75.63,-44l0 38.5 72.88 0 0 -258.52 -72.88 0 -1.37 160.89 0 0z"/>
    <path class="fil3" d="M2042.73 1353.95l0 -48.12 -71.5 0 0 258.52 71.5 0 0 -133.39c0,-42.63 28.88,-57.75 78.38,-57.75l0 -71.51c-35.75,0 -67.38,20.63 -78.38,52.25z"/>
    <path class="fil3" d="M2385.13 1422.71c0,-85.26 -53.63,-121.01 -118.26,-121.01 -70.13,0 -123.76,48.13 -123.76,134.76l0 5.5c0,86.63 50.88,130.64 125.14,130.64l0 0c67.38,0 107.26,-37.13 115.51,-86.64l-67.38 0.01c-5.5,22 -26.13,35.75 -48.13,34.37 -31.63,0 -50.88,-17.87 -53.63,-64.63l167.76 0 0 -33 2.75 0zm-167.76 -16.5l0 0 0 0c5.5,-42.63 26.13,-55.01 49.5,-55.01 28.88,0 46.76,16.51 48.13,55.01l-97.63 0 0 0z"/>
    <polygon class="fil3" points="2217.37,1406.21 2217.37,1406.21 2217.37,1406.21 "/>
   </g>
  </g>
 </g>
</svg>
