<?xml version="1.0" encoding="UTF-8"?>
<!DOCTYPE svg PUBLIC "-//W3C//DTD SVG 1.1//EN" "http://www.w3.org/Graphics/SVG/1.1/DTD/svg11.dtd">
<!-- Creator: CorelDRAW 2021 (64 Bit) -->
<svg xmlns="http://www.w3.org/2000/svg" xml:space="preserve" width="29.6332mm" height="11.0066mm" version="1.1" style="shape-rendering:geometricPrecision; text-rendering:geometricPrecision; image-rendering:optimizeQuality; fill-rule:evenodd; clip-rule:evenodd"
viewBox="0 0 296332 110066"
 xmlns:xlink="http://www.w3.org/1999/xlink"
 xmlns:xodm="http://www.corel.com/coreldraw/odm/2003">
 <defs>
  <style type="text/css">
   <![CDATA[
    .fil0 {fill:#666666;fill-rule:nonzero}
    .fil1 {fill:#999999;fill-rule:nonzero}
   ]]>
  </style>
 </defs>
 <g id="Camada_x0020_1" visibility="hidden">
  <metadata id="CorelCorpID_0Corel-Layer"/>
  <g id="Wordmark2_white_RGB.svg">
   <g id="Livello_2" data-name="Livello 2">
    <g id="Livello_1-2" data-name="Livello 1">
     <path class="fil0" d="M177798 47000l-8366 0 13 15653c0,4575 -1961,8275 -6535,8275 -4577,0 -6556,-3700 -6556,-8275l0 -15639 -8345 0 -2 15639c0,9040 5811,16366 14852,16366 9038,0 14937,-7326 14937,-16366l2 -15653z"/>
     <rect class="fil0" x="253237" y="37461" width="8325" height="40751"/>
     <polygon class="fil0" points="267709,38964 267709,37500 274197,37500 274197,38964 271823,38964 271823,45417 270083,45417 270083,38964 "/>
     <polygon class="fil0" points="277555,37500 279407,42944 279429,42944 281180,37500 283633,37500 283633,45417 282002,45417 282002,39806 281980,39806 280040,45417 278698,45417 276758,39862 276735,39862 276735,45417 275106,45417 275106,37500 "/>
     <g>
      <path class="fil0" d="M141204 46659c-7176,-1656 -11703,5473 -11892,5856 -92,187 -95,297 -413,289 -262,-6 -292,-289 -292,-289l-891 -5454 -7458 0 0 31124 8360 0 0 -16847c0,-1376 3707,-7977 10890,-6278 3632,860 5174,2401 5174,2401l0 -9482c-1091,-598 -2263,-1045 -3478,-1319l0 -1zm0 0l0 0 0 0z"/>
     </g>
     <g>
      <path class="fil0" d="M197245 54545c0,1 2,1 2,1 4606,0 8342,3735 8342,8341 0,4606 -3736,8342 -8342,8342 -4606,0 -8341,-3736 -8341,-8342 0,0 0,-2 0,-2 1,-4604 3735,-8338 8340,-8339l-1 -1zm-8103 33892l0 -11199 2 2 3 -4194c0,0 12,-336 315,-339 269,-4 330,175 396,339 633,1578 4119,7585 11855,5701 7100,-2002 12005,-8483 12005,-15860 0,-9099 -7379,-16479 -16479,-16479 -9099,0 -16479,7377 -16479,16477l0 25551 8382 1z"/>
     </g>
     <g>
      <path class="fil0" d="M241714 62886c0,-1 0,1 0,1 0,4606 -3736,8342 -8342,8342 -4606,0 -8342,-3736 -8342,-8342 0,-4606 3736,-8341 8342,-8341 0,0 1,0 1,0 4605,1 8339,3734 8341,8339l0 1zm-238 15313l8382 0 0 -15313c0,-9101 -7379,-16478 -16479,-16478 -9099,0 -16478,7379 -16478,16479 0,7377 4905,13857 12004,15859 7736,1885 11222,-4124 11855,-5701 66,-164 126,-342 396,-340 303,4 315,340 315,340l5 5154zm0 0l0 0 0 0z"/>
     </g>
     <g>
      <path class="fil0" d="M96340 44498l-3360 0 0 26576 3451 89c7080,0 11639,-644 11639,-13374 0,-12207 -4025,-13291 -11730,-13291l0 0zm-2269 33636l-9510 0 0 -40690 10204 0c12354,0 21725,2268 21725,20345 0,17904 -9926,20345 -22419,20345l0 0zm0 0l0 0 0 0z"/>
     </g>
     <g>
      <path class="fil0" d="M48842 35832c-4709,-4706 -9201,-9192 -10538,-14252 -1337,5060 -5830,9546 -10537,14252 -7061,7057 -15068,15055 -15068,27050 1,14139 11467,25605 25606,25605 14139,0 25606,-11466 25606,-25605 0,-11995 -8006,-19994 -15069,-27050l0 0zm-25259 33017c-1570,-54 -7365,-10041 3385,-20675l7113 7770c116,114 181,270 181,432 0,185 -84,360 -228,475 -1698,1741 -8932,8996 -9832,11504 -185,518 -456,499 -619,493l0 1zm14722 13163c0,-1 0,-1 0,-1 -4863,0 -8806,-3943 -8806,-8806 0,0 0,0 0,0 32,-2135 809,-4194 2195,-5817 1588,-1941 6610,-7403 6610,-7403 0,0 4945,5542 6598,7385 1422,1580 2210,3633 2210,5759 0,25 0,52 0,76 0,0 0,0 0,0 0,4863 -3944,8806 -8807,8806l0 1zm16856 -14281c-190,415 -621,1108 -1202,1129 -1036,38 -1146,-493 -1912,-1626 -1681,-2488 -16350,-17819 -19094,-20784 -2413,-2608 -340,-4446 622,-5410 1207,-1208 4729,-4729 4729,-4729 0,0 10503,9966 14878,16775 4375,6808 2868,12700 1979,14645z"/>
     </g>
    </g>
   </g>
  </g>
 </g>
 <g id="Camada_x0020_2">
  <metadata id="CorelCorpID_1Corel-Layer"/>
  <path class="fil0" d="M13248 65478l0 -20891c0,-465 74,-888 222,-1268 149,-381 360,-709 634,-983 275,-274 602,-486 983,-634 381,-149 804,-223 1268,-223l31580 0 0 5180 -29024 0 0 5489 25500 0 0 5179 -25500 0 0 6080 29024 0 0 5179 -31580 0c-464,0 -887,-74 -1268,-223 -381,-148 -708,-359 -983,-634 -274,-274 -485,-602 -634,-982 -148,-381 -222,-804 -222,-1269z"/>
  <path id="_1" class="fil0" d="M95333 41479l24174 0c910,0 1741,110 2494,329 751,220 1429,520 2033,901 603,380 1129,832 1578,1355 448,523 821,1089 1118,1699 297,610 519,1249 668,1917 148,668 219,1341 213,2018 0,691 -74,1375 -223,2053 -148,677 -371,1321 -668,1931 -297,610 -670,1173 -1118,1689 -449,517 -973,964 -1573,1341 -600,378 -1277,673 -2028,886 -753,213 -1584,320 -2494,320l-21618 0 0 10668 -5654 0 -9 -23999c0,-465 74,-888 222,-1268 149,-381 360,-709 634,-983 275,-274 602,-486 983,-634 381,-149 804,-223 1268,-223zm24067 11259c420,0 788,-87 1104,-261 316,-174 581,-404 794,-688 213,-284 372,-608 479,-972 106,-365 162,-738 166,-1119 3,-380 -48,-753 -152,-1118 -103,-364 -259,-689 -469,-973 -210,-284 -474,-513 -794,-687 -319,-174 -695,-261 -1128,-261l-21511 0 0 6079 21511 0z"/>
  <path id="_2" class="fil0" d="M134552 41479l24174 0c910,0 1741,110 2493,329 751,220 1429,520 2033,901 603,380 1129,832 1578,1355 448,523 821,1089 1118,1699 297,610 519,1249 668,1917 148,668 219,1341 213,2018 0,691 -74,1375 -223,2053 -148,677 -371,1321 -668,1931 -297,610 -670,1173 -1118,1689 -449,517 -973,964 -1573,1341 -600,378 -1277,673 -2028,886 -752,213 -1583,320 -2493,320l-107 0 8713 10668 -7019 0 -8712 -10668 -14493 0 0 10668 -5654 0 -9 -23999c0,-465 74,-888 222,-1268 149,-381 360,-709 634,-983 275,-274 602,-486 983,-634 381,-149 804,-223 1268,-223zm24067 11259c420,0 788,-87 1104,-261 316,-174 581,-404 794,-688 213,-284 372,-608 479,-972 106,-365 161,-738 165,-1119 3,-380 -47,-753 -151,-1118 -103,-364 -259,-689 -469,-973 -210,-284 -474,-513 -794,-687 -319,-174 -695,-261 -1128,-261l-21511 0 0 6079 21511 0z"/>
  <path id="_3" class="fil0" d="M170295 65478l0 -20891c0,-465 74,-888 222,-1268 149,-381 360,-709 634,-983 275,-274 602,-486 983,-634 381,-149 804,-223 1268,-223l31580 0 0 5180 -29024 0 0 5489 25500 0 0 5179 -25500 0 0 6080 29024 0 0 5179 -31580 0c-464,0 -887,-74 -1268,-223 -381,-148 -708,-359 -983,-634 -274,-274 -485,-602 -634,-982 -148,-381 -222,-804 -222,-1269z"/>
  <path id="_4" class="fil0" d="M216241 41479l26874 0 0 5180 -26768 0c-432,0 -808,77 -1128,232 -319,155 -584,361 -794,619 -209,259 -366,551 -469,877 -103,326 -153,660 -150,1002 3,342 58,676 164,1002 107,325 267,618 480,876 213,258 477,464 794,619 316,155 684,233 1103,233l19575 29c910,0 1741,106 2493,319 752,213 1428,508 2028,886 600,378 1125,824 1573,1341 449,516 822,1079 1118,1689 297,610 520,1252 668,1927 149,674 223,1360 223,2057 7,678 -64,1350 -213,2018 -148,668 -371,1307 -668,1917 -297,610 -669,1176 -1118,1699 -449,523 -975,975 -1578,1356 -603,380 -1283,680 -2038,900 -755,219 -1584,329 -2488,329l-26816 0 0 -5179 26710 0c426,0 798,-99 1118,-296 319,-196 586,-445 798,-745 213,-300 373,-629 480,-988 106,-358 159,-695 159,-1011 0,-291 -53,-589 -159,-896 -107,-306 -267,-582 -480,-827 -212,-246 -479,-447 -798,-605 -320,-159 -692,-238 -1118,-238l-19575 -29c-1085,0 -2061,-151 -2929,-455 -868,-303 -1626,-716 -2275,-1239 -648,-523 -1189,-1131 -1621,-1825 -433,-694 -756,-1433 -969,-2217 -213,-784 -319,-1587 -319,-2410 0,-823 110,-1627 329,-2411 220,-784 546,-1523 978,-2217 432,-694 973,-1302 1622,-1825 648,-522 1405,-935 2270,-1239 865,-303 1836,-455 2914,-455z"/>
  <path id="_5" class="fil0" d="M255294 41479l26874 0 0 5180 -26768 0c-432,0 -808,77 -1128,232 -319,155 -584,361 -794,619 -209,259 -366,551 -469,877 -103,326 -153,660 -150,1002 3,342 58,676 164,1002 107,325 267,618 480,876 213,258 477,464 794,619 316,155 684,233 1103,233l19575 29c910,0 1741,106 2493,319 752,213 1428,508 2028,886 600,378 1125,824 1573,1341 449,516 822,1079 1118,1689 297,610 520,1252 668,1927 149,674 223,1360 223,2057 7,678 -64,1350 -213,2018 -148,668 -371,1307 -668,1917 -297,610 -669,1176 -1118,1699 -449,523 -975,975 -1578,1356 -603,380 -1283,680 -2038,900 -755,219 -1584,329 -2488,329l-26816 0 0 -5179 26710 0c426,0 798,-99 1118,-296 319,-196 586,-445 798,-745 213,-300 373,-629 480,-988 106,-358 159,-695 159,-1011 0,-291 -53,-589 -159,-896 -107,-306 -267,-582 -480,-827 -212,-246 -479,-447 -798,-605 -320,-159 -692,-238 -1118,-238l-19575 -29c-1085,0 -2061,-151 -2929,-455 -868,-303 -1626,-716 -2275,-1239 -648,-523 -1189,-1131 -1621,-1825 -433,-694 -756,-1433 -969,-2217 -213,-784 -319,-1587 -319,-2410 0,-823 110,-1627 329,-2411 220,-784 546,-1523 978,-2217 432,-694 973,-1302 1622,-1825 648,-522 1405,-935 2270,-1239 865,-303 1836,-455 2914,-455z"/>
  <polygon id="_6" class="fil1" points="65331,54355 51584,41479 60491,41479 69736,50192 78982,41479 87888,41479 74141,54355 89244,68586 80531,68586 69736,58479 58942,68586 50229,68586 "/>
 </g>
</svg>
